{
.appVersion = "1270";
DisplayStrings = (
"HO1234567890\012H\012H\012        \012\012\012",
"OHno\012/Tse-cy/Sha-cy/Shcha-cy/Ge-cy IFE/Ie-cy/Io-cy LT\012B/Be-cy PD/Hardsign-cy/Yeru-cy/Softsign-cy/Ia-cy R/Che-cy/El-cy/De-cy \012/Ii-cy/Iishort-cy NMKWAVXYZ/U-cy/Zhe-cy \012CGOQSJU/Ze-cy/Ef-cy/Ereversed-cy/Iu-cy  \012\012no\012anpbgh/che-cy m\012oces/be-cy/ereversed-cy/ze-cy/ef-cy/iu-cy \012trfij\012vwxyzk/zhe-cy/ii-cy/ka-cy/el-cy/em-cy/de-cy/ia-cy \012/ve-cy/tse-cy/en-cy l/te-cy/ge-cy/sha-cy/shcha-cy/pe-cy/hardsign-cy/yeru-cy/softsign-cy \012\012\012\012ABCDEFGHIJKLMNOPQRSTUVWXYZ\012\012\012"
);
copyright = "Copyright 2020 The Liter Project Authors (https://github.com/skugiz/liter)";
customParameters = (
{
name = vendorID;
value = INNO;
},
{
name = fsType;
value = (
);
},
{
name = "Use Typo Metrics";
value = 1;
},
{
name = unicodeRanges;
value = (
0,
1,
2,
3,
4,
5,
6,
29,
31,
33,
35,
37,
38,
42,
45,
47,
60,
62
);
},
{
name = blueShift;
value = 0;
},
{
name = panose;
value = (
2,
0,
0,
0,
0,
0,
0,
0,
0,
0
);
},
{
name = blueScale;
value = 0;
},
{
name = Axes;
value = (
{
Name = Weight;
Tag = wght;
},
{
Name = Slant;
Tag = slnt;
}
);
},
{
name = licenseURL;
value = "http://scripts.sil.org/OFL";
},
{
name = license;
value = "This Font Software is licensed under the SIL Open Font License, Version 1.1. This license is available with a FAQ at: http://scripts.sil.org/OFL";
},
{
name = "Enforce Compatibility Check";
value = 1;
}
);
date = "2020-01-22 15:37:39 +0000";
designer = "Anton Skugarov";
designerURL = "http://www.skugarov.com";
familyName = "Liter Text";
featurePrefixes = (
{
automatic = 1;

glyphs = (
{
glyphname = A;
lastChange = "2020-06-24 14:36:21 +0000";
layers = (
{
layerId = "1C9972D2-AAA2-4EE5-9F28-188B121D2056";
paths = (
{
closed = 1;
nodes = (
"358 700 LINE",
"266 700 LINE",
"0 0 LINE",
"96 0 LINE",
"172 206 LINE",
"138 186 LINE",
"494 186 LINE",
"452 206 LINE",
"528 0 LINE",
"624 0 LINE"
);
},
{
closed = 1;
nodes = (
"168 268 LINE",
"182 236 LINE",
"322 616 LINE",
"302 616 LINE",
"442 236 LINE",
"464 268 LINE"
);
}
);
width = 624;
}
);
leftKerningGroup = A;
note = A;
rightKerningGroup = A;
unicode = 0041;
},
{
glyphname = B;
lastChange = "2020-06-24 14:52:24 +0000";
layers = (
{
layerId = "1C9972D2-AAA2-4EE5-9F28-188B121D2056";
paths = (
{
closed = 1;
nodes = (
"72 700 LINE",
"72 0 LINE",
"340 0 LINE SMOOTH",
"409 0 OFFCURVE",
"514 50 OFFCURVE",
"571 139 OFFCURVE",
"572 198 QCURVE SMOOTH",
"571 246 OFFCURVE",
"534 316 OFFCURVE",
"480 358 OFFCURVE",
"452 366 QCURVE",
"490 381 OFFCURVE",
"544 459 OFFCURVE",
"544 520 QCURVE SMOOTH",
"544 571 OFFCURVE",
"494 652 OFFCURVE",
"399 700 OFFCURVE",
"334 700 QCURVE"
);
},
{
closed = 1;
nodes = (
"126 80 LINE",
"160 48 LINE",
"160 654 LINE",
"126 620 LINE",
"322 620 LINE SMOOTH",
"384 620 OFFCURVE",
"454 562 OFFCURVE",
"454 510 QCURVE SMOOTH",
"454 461 OFFCURVE",
"389 400 OFFCURVE",
"328 400 QCURVE SMOOTH",
"144 400 LINE",
"144 322 LINE",
"338 322 LINE SMOOTH",
"403 321 OFFCURVE",
"480 256 OFFCURVE",
"480 200 QCURVE SMOOTH",
"480 143 OFFCURVE",
"400 80 OFFCURVE",
"334 80 QCURVE"
);
}
);
width = 614;
}
);
leftMetricsKey = H;
unicode = 0042;
},
{
glyphname = C;
lastChange = "2020-06-24 14:52:08 +0000";
layers = (
{
layerId = "1C9972D2-AAA2-4EE5-9F28-188B121D2056";
paths = (
{
closed = 1;
nodes = (
"560 220 LINE",
"551 184 OFFCURVE",
"502 117 OFFCURVE",
"416 72 OFFCURVE",
"358 72 QCURVE SMOOTH",
"290 72 OFFCURVE",
"188 144 OFFCURVE",
"133 271 OFFCURVE",
"134 352 QCURVE SMOOTH",
"133 434 OFFCURVE",
"189 561 OFFCURVE",
"291 629 OFFCURVE",
"360 630 QCURVE SMOOTH",
"415 629 OFFCURVE",
"496 593 OFFCURVE",
"545 528 OFFCURVE",
"558 486 QCURVE",
"648 486 LINE",
"636 550 OFFCURVE",
"562 654 OFFCURVE",
"440 712 OFFCURVE",
"360 712 QCURVE SMOOTH",
"266 712 OFFCURVE",
"121 622 OFFCURVE",
"42 456 OFFCURVE",
"42 352 QCURVE SMOOTH",
"42 247 OFFCURVE",
"122 81 OFFCURVE",
"267 -11 OFFCURVE",
"360 -12 QCURVE SMOOTH",
"446 -11 OFFCURVE",
"572 59 OFFCURVE",
"641 165 OFFCURVE",
"650 220 QCURVE"
);
}
);
width = 692;
}
);
leftKerningGroup = C;
leftMetricsKey = O;
rightKerningGroup = C;
rightMetricsKey = O;
unicode = 0043;
},
{
glyphname = D;
lastChange = "2020-06-24 14:52:14 +0000";
layers = (
{
layerId = "1C9972D2-AAA2-4EE5-9F28-188B121D2056";
paths = (
{
closed = 1;
nodes = (
"72 700 LINE",
"72 0 LINE",
"292 0 LINE SMOOTH",
"400 0 OFFCURVE",
"557 85 OFFCURVE",
"640 243 OFFCURVE",
"640 352 QCURVE SMOOTH",
"640 460 OFFCURVE",
"557 616 OFFCURVE",
"400 700 OFFCURVE",
"292 700 QCURVE"
);
},
{
closed = 1;
nodes = (
"124 82 LINE",
"162 42 LINE",
"162 658 LINE",
"124 620 LINE",
"280 620 LINE SMOOTH",
"369 620 OFFCURVE",
"489 557 OFFCURVE",
"549 437 OFFCURVE",
"550 352 QCURVE SMOOTH",
"549 222 OFFCURVE",
"413 81 OFFCURVE",
"280 82 QCURVE"
);
}
);
width = 682;
}
);
leftKerningGroup = D;
leftMetricsKey = H;
rightKerningGroup = D;
rightMetricsKey = O;
unicode = 0044;
},
{
glyphname = E;
lastChange = "2020-06-24 14:51:39 +0000";
layers = (
{
layerId = "1C9972D2-AAA2-4EE5-9F28-188B121D2056";
paths = (
{
closed = 1;
nodes = (
"126 82 LINE",
"162 50 LINE",
"162 652 LINE",
"126 618 LINE",
"518 618 LINE",
"518 700 LINE",
"72 700 LINE",
"72 0 LINE",
"518 0 LINE",
"518 82 LINE"
);
},
{
closed = 1;
nodes = (
"500 402 LINE",
"146 402 LINE",
"146 322 LINE",
"500 322 LINE"
);
}
);
width = 560;
}
);
leftMetricsKey = H;
rightKerningGroup = E;
unicode = 0045;
},
{
glyphname = F;
lastChange = "2020-06-24 14:51:19 +0000";
layers = (
{
layerId = "1C9972D2-AAA2-4EE5-9F28-188B121D2056";
paths = (
{
closed = 1;
nodes = (
"72 0 LINE",
"162 0 LINE",
"162 652 LINE",
"126 618 LINE",
"516 618 LINE",
"516 700 LINE",
"72 700 LINE"
);
},
{
closed = 1;
nodes = (
"492 390 LINE",
"146 390 LINE",
"146 308 LINE",
"492 308 LINE"
);
}
);
width = 558;
}
);
leftKerningGroup = F;
leftMetricsKey = H;
rightKerningGroup = F;
unicode = 0046;
},
{
glyphname = G;
lastChange = "2020-06-24 14:40:52 +0000";
layers = (
{
layerId = "1C9972D2-AAA2-4EE5-9F28-188B121D2056";
paths = (
{
closed = 1;
nodes = (
"656 362 LINE",
"352 362 LINE",
"352 282 LINE",
"594 282 LINE",
"568 312 LINE",
"568 278 LINE SMOOTH",
"567 184 OFFCURVE",
"457 71 OFFCURVE",
"364 72 QCURVE SMOOTH",
"297 71 OFFCURVE",
"192 140 OFFCURVE",
"133 267 OFFCURVE",
"134 352 QCURVE SMOOTH",
"133 435 OFFCURVE",
"190 562 OFFCURVE",
"294 629 OFFCURVE",
"364 630 QCURVE SMOOTH",
"442 629 OFFCURVE",
"537 557 OFFCURVE",
"558 492 QCURVE",
"650 492 LINE",
"637 554 OFFCURVE",
"562 656 OFFCURVE",
"441 712 OFFCURVE",
"364 712 QCURVE SMOOTH",
"269 712 OFFCURVE",
"123 623 OFFCURVE",
"42 458 OFFCURVE",
"42 352 QCURVE SMOOTH",
"42 246 OFFCURVE",
"124 81 OFFCURVE",
"270 -11 OFFCURVE",
"362 -12 QCURVE SMOOTH",
"453 -11 OFFCURVE",
"586 67 OFFCURVE",
"656 203 OFFCURVE",
"656 290 QCURVE"
);
}
);
width = 698;
}
);
leftKerningGroup = C;
leftMetricsKey = O;
rightKerningGroup = C;
rightMetricsKey = O;
unicode = 0047;
},
{
glyphname = H;
lastChange = "2020-06-24 14:38:19 +0000";
layers = (
{
layerId = "1C9972D2-AAA2-4EE5-9F28-188B121D2056";
paths = (
{
closed = 1;
nodes = (
"72 0 LINE",
"160 0 LINE",
"160 700 LINE",
"72 700 LINE"
);
},
{
closed = 1;
nodes = (
"632 700 LINE",
"544 700 LINE",
"544 0 LINE",
"632 0 LINE"
);
},
{
closed = 1;
nodes = (
"146 318 LINE",
"560 318 LINE",
"560 400 LINE",
"146 400 LINE"
);
}
);
width = 704;
}
);
unicode = 0048;
},
{
glyphname = I;
lastChange = "2020-06-24 14:52:35 +0000";
layers = (
{
hints = (
{
horizontal = 1;
place = "{0.1, 21}";
target = up;
type = BottomGhost;
}
);
layerId = "1C9972D2-AAA2-4EE5-9F28-188B121D2056";
paths = (
{
closed = 1;
nodes = (
"160 0 LINE",
"160 700 LINE",
"72 700 LINE",
"72 0 LINE"
);
}
);
width = 232;
}
);
leftMetricsKey = H;
rightMetricsKey = H;
unicode = 0049;
},
{
glyphname = J;
lastChange = "2020-06-24 14:52:48 +0000";
layers = (
{
layerId = "1C9972D2-AAA2-4EE5-9F28-188B121D2056";
paths = (
{
closed = 1;
nodes = (
"32 181 LINE",
"33 133 OFFCURVE",
"80 45 OFFCURVE",
"174 -11 OFFCURVE",
"239 -11 QCURVE SMOOTH",
"342 -11 OFFCURVE",
"455 114 OFFCURVE",
"455 227 QCURVE SMOOTH",
"455 700 LINE",
"366 700 LINE",
"366 227 LINE SMOOTH",
"366 157 OFFCURVE",
"303 72 OFFCURVE",
"240 72 QCURVE SMOOTH",
"201 72 OFFCURVE",
"148 107 OFFCURVE",
"122 157 OFFCURVE",
"120 181 QCURVE"
);
}
);
width = 528;
}
);
rightMetricsKey = H;
unicode = 004A;
},
{
glyphname = K;
lastChange = "2020-06-24 14:53:17 +0000";
layers = (
{
layerId = "1C9972D2-AAA2-4EE5-9F28-188B121D2056";
paths = (
{
closed = 1;
nodes = (
"72 0 LINE",
"162 0 LINE",
"162 700 LINE",
"72 700 LINE"
);
},
{
closed = 1;
nodes = (
"474 700 LINE",
"136 364 LINE",
"478 0 LINE",
"596 0 LINE",
"230 396 LINE",
"230 342 LINE",
"590 700 LINE"
);
}
);
width = 644;
}
);
leftMetricsKey = H;
rightKerningGroup = K;
unicode = 004B;
},
{
glyphname = L;
lastChange = "2020-06-24 14:53:38 +0000";
layers = (
{
hints = (
{
horizontal = 1;
place = "{712.637, -20}";
target = down;
type = TopGhost;
}
);
layerId = "1C9972D2-AAA2-4EE5-9F28-188B121D2056";
paths = (
{
closed = 1;
nodes = (
"126 82 LINE",
"162 50 LINE",
"162 700 LINE",
"72 700 LINE",
"72 0 LINE",
"518 0 LINE",
"518 82 LINE"
);
}
);
width = 550;
}
);
leftMetricsKey = H;
rightKerningGroup = L;
unicode = 004C;
},
{
glyphname = M;
lastChange = "2020-06-24 14:53:41 +0000";
layers = (
{
layerId = "1C9972D2-AAA2-4EE5-9F28-188B121D2056";
paths = (
{
closed = 1;
nodes = (
"72 0 LINE",
"72 700 LINE",
"160 700 LINE",
"160 0 LINE"
);
},
{
closed = 1;
nodes = (
"790 0 LINE",
"702 0 LINE",
"704 700 LINE",
"790 702 LINE"
);
},
{
closed = 1;
nodes = (
"474 0 LINE",
"388 0 LINE",
"108 660 LINE",
"118 700 LINE",
"180 700 LINE",
"462 42 LINE",
"400 42 LINE",
"684 702 LINE",
"744 700 LINE",
"754 656 LINE"
);
}
);
width = 862;
}
);
leftMetricsKey = H;
rightMetricsKey = H;
unicode = 004D;
},
{
glyphname = N;
lastChange = "2020-06-24 14:53:56 +0000";
layers = (
{
layerId = "1C9972D2-AAA2-4EE5-9F28-188B121D2056";
paths = (
{
closed = 1;
nodes = (
"588 0 LINE",
"628 18 LINE",
"170 700 LINE",
"126 700 LINE",
"100 658 LINE",
"544 0 LINE"
);
},
{
closed = 1;
nodes = (
"160 0 LINE",
"160 700 LINE",
"72 700 LINE",
"72 0 LINE"
);
},
{
closed = 1;
nodes = (
"630 0 LINE",
"630 700 LINE",
"542 700 LINE",
"544 0 LINE"
);
}
);
width = 702;
}
);
leftMetricsKey = H;
rightMetricsKey = H;
unicode = 004E;
},
{
glyphname = O;
lastChange = "2020-06-24 14:54:15 +0000";
layers = (
{
layerId = "1C9972D2-AAA2-4EE5-9F28-188B121D2056";
paths = (
{
closed = 1;
nodes = (
"268 712 OFFCURVE",
"121 620 OFFCURVE",
"42 455 OFFCURVE",
"42 352 QCURVE SMOOTH",
"42 247 OFFCURVE",
"121 82 OFFCURVE",
"268 -12 OFFCURVE",
"366 -12 QCURVE SMOOTH",
"462 -12 OFFCURVE",
"609 82 OFFCURVE",
"688 247 OFFCURVE",
"688 352 QCURVE SMOOTH",
"688 455 OFFCURVE",
"609 620 OFFCURVE",
"462 712 OFFCURVE",
"366 712 QCURVE"
);
},
{
closed = 1;
nodes = (
"294 70 OFFCURVE",
"189 142 OFFCURVE",
"132 269 OFFCURVE",
"132 352 QCURVE SMOOTH",
"132 433 OFFCURVE",
"189 560 OFFCURVE",
"294 630 OFFCURVE",
"366 630 QCURVE SMOOTH",
"436 630 OFFCURVE",
"541 560 OFFCURVE",
"598 433 OFFCURVE",
"598 352 QCURVE SMOOTH",
"598 269 OFFCURVE",
"541 142 OFFCURVE",
"436 70 OFFCURVE",
"366 70 QCURVE"
);
}
);
width = 730;
}
);
leftKerningGroup = at;
rightKerningGroup = D;
unicode = 004F;
},
{
glyphname = P;
lastChange = "2020-06-24 14:54:11 +0000";
layers = (
{
layerId = "1C9972D2-AAA2-4EE5-9F28-188B121D2056";
paths = (
{
closed = 1;
nodes = (
"72 700 LINE",
"72 0 LINE",
"162 0 LINE",
"162 640 LINE",
"142 620 LINE",
"308 620 LINE SMOOTH",
"356 619 OFFCURVE",
"424 583 OFFCURVE",
"460 519 OFFCURVE",
"460 476 QCURVE SMOOTH",
"460 411 OFFCURVE",
"379 332 OFFCURVE",
"308 332 QCURVE SMOOTH",
"144 332 LINE",
"144 252 LINE",
"320 252 LINE SMOOTH",
"389 251 OFFCURVE",
"495 312 OFFCURVE",
"551 415 OFFCURVE",
"552 476 QCURVE SMOOTH",
"551 538 OFFCURVE",
"496 640 OFFCURVE",
"390 700 OFFCURVE",
"318 700 QCURVE"
);
}
);
width = 584;
}
);
leftMetricsKey = H;
rightKerningGroup = P;
unicode = 0050;
},
{
glyphname = Q;
lastChange = "2020-06-24 14:54:26 +0000";
layers = (
{
components = (
{
name = O;
}
);
layerId = "1C9972D2-AAA2-4EE5-9F28-188B121D2056";
paths = (
{
closed = 1;
nodes = (
"668 -61 LINE",
"484 213 LINE",
"385 213 LINE",
"569 -61 LINE"
);
}
);
width = 730;
}
);
leftKerningGroup = C;
leftMetricsKey = O;
rightMetricsKey = O;
unicode = 0051;
},
{
glyphname = R;
lastChange = "2020-06-24 14:54:38 +0000";
layers = (
{
layerId = "1C9972D2-AAA2-4EE5-9F28-188B121D2056";
paths = (
{
closed = 1;
nodes = (
"146 342 LINE",
"146 260 LINE",
"324 260 LINE SMOOTH",
"394 260 OFFCURVE",
"499 323 OFFCURVE",
"556 424 OFFCURVE",
"556 482 QCURVE SMOOTH",
"556 540 OFFCURVE",
"503 640 OFFCURVE",
"398 700 OFFCURVE",
"324 700 QCURVE SMOOTH",
"72 700 LINE",
"72 0 LINE",
"162 0 LINE",
"162 646 LINE",
"134 620 LINE",
"314 620 LINE SMOOTH",
"364 619 OFFCURVE",
"432 583 OFFCURVE",
"465 520 OFFCURVE",
"466 482 QCURVE SMOOTH",
"465 443 OFFCURVE",
"432 379 OFFCURVE",
"363 341 OFFCURVE",
"314 342 QCURVE"
);
},
{
closed = 1;
nodes = (
"592 0 LINE",
"396 290 LINE",
"290 290 LINE",
"488 0 LINE"
);
}
);
width = 604;
}
);
leftMetricsKey = H;
rightKerningGroup = R;
unicode = 0052;
},
{
glyphname = S;
lastChange = "2020-06-24 14:54:58 +0000";
layers = (
{
layerId = "1C9972D2-AAA2-4EE5-9F28-188B121D2056";
paths = (
{
closed = 1;
nodes = (
"42 184 LINE",
"52 120 OFFCURVE",
"127 33 OFFCURVE",
"241 -12 OFFCURVE",
"312 -12 QCURVE SMOOTH",
"383 -12 OFFCURVE",
"496 40 OFFCURVE",
"570 136 OFFCURVE",
"570 202 QCURVE SMOOTH",
"570 287 OFFCURVE",
"471 362 OFFCURVE",
"378 388 QCURVE SMOOTH",
"246 422 LINE SMOOTH",
"198 435 OFFCURVE",
"158 481 OFFCURVE",
"158 520 QCURVE SMOOTH",
"158 558 OFFCURVE",
"185 604 OFFCURVE",
"264 631 OFFCURVE",
"304 632 QCURVE SMOOTH",
"367 631 OFFCURVE",
"451 581 OFFCURVE",
"468 528 QCURVE",
"560 528 LINE",
"548 588 OFFCURVE",
"476 673 OFFCURVE",
"369 713 OFFCURVE",
"304 714 QCURVE SMOOTH",
"238 713 OFFCURVE",
"117 664 OFFCURVE",
"67 576 OFFCURVE",
"68 514 QCURVE SMOOTH",
"67 441 OFFCURVE",
"144 358 OFFCURVE",
"228 338 QCURVE SMOOTH",
"358 304 LINE SMOOTH",
"412 290 OFFCURVE",
"479 242 OFFCURVE",
"480 196 QCURVE SMOOTH",
"479 157 OFFCURVE",
"430 101 OFFCURVE",
"359 70 OFFCURVE",
"314 70 QCURVE SMOOTH",
"241 70 OFFCURVE",
"150 131 OFFCURVE",
"134 184 QCURVE"
);
}
);
width = 612;
}
);
unicode = 0053;
},
{
glyphname = T;
lastChange = "2020-06-24 14:55:34 +0000";
layers = (
{
layerId = "1C9972D2-AAA2-4EE5-9F28-188B121D2056";
paths = (
{
closed = 1;
nodes = (
"353 0 LINE",
"353 646 LINE",
"264 646 LINE",
"264 0 LINE"
);
},
{
closed = 1;
nodes = (
"32 700 LINE",
"32 618 LINE",
"585 618 LINE",
"585 700 LINE"
);
}
);
width = 617;
}
);
leftKerningGroup = T;
rightKerningGroup = T;
unicode = 0054;
},
{
glyphname = U;
lastChange = "2020-06-24 14:55:56 +0000";
layers = (
{
layerId = "1C9972D2-AAA2-4EE5-9F28-188B121D2056";
paths = (
{
closed = 1;
nodes = (
"56 700 LINE",
"56 276 LINE SMOOTH",
"56 183 OFFCURVE",
"128 54 OFFCURVE",
"253 -12 OFFCURVE",
"334 -12 QCURVE SMOOTH",
"413 -12 OFFCURVE",
"538 54 OFFCURVE",
"610 183 OFFCURVE",
"610 276 QCURVE SMOOTH",
"610 700 LINE",
"522 700 LINE",
"522 280 LINE SMOOTH",
"521 178 OFFCURVE",
"417 71 OFFCURVE",
"334 72 QCURVE SMOOTH",
"278 71 OFFCURVE",
"193 118 OFFCURVE",
"145 212 OFFCURVE",
"146 280 QCURVE SMOOTH",
"146 700 LINE"
);
}
);
width = 666;
}
);
leftKerningGroup = U;
rightKerningGroup = U;
unicode = 0055;
},
{
glyphname = V;
lastChange = "2020-06-24 14:56:22 +0000";
layers = (
{
layerId = "1C9972D2-AAA2-4EE5-9F28-188B121D2056";
paths = (
{
closed = 1;
nodes = (
"372 0 LINE",
"636 700 LINE",
"540 700 LINE",
"316 88 LINE",
"338 88 LINE",
"112 700 LINE",
"16 700 LINE",
"280 0 LINE"
);
}
);
width = 652;
}
);
leftKerningGroup = V;
rightKerningGroup = V;
unicode = 0056;
},
{
glyphname = W;
lastChange = "2020-06-24 14:56:39 +0000";
layers = (
{
layerId = "1C9972D2-AAA2-4EE5-9F28-188B121D2056";
paths = (
{
closed = 1;
nodes = (
"721 0 LINE",
"939 700 LINE",
"845 700 LINE",
"670 124 LINE",
"689 124 LINE",
"520 700 LINE",
"434 700 LINE",
"265 124 LINE",
"284 124 LINE",
"109 700 LINE",
"15 700 LINE",
"233 0 LINE",
"315 0 LINE",
"488 595 LINE",
"464 595 LINE",
"637 0 LINE"
);
}
);
width = 954;
}
);
leftKerningGroup = W;
rightKerningGroup = W;
unicode = 0057;
},
{
glyphname = X;
lastChange = "2020-06-24 14:57:01 +0000";
layers = (
{
layerId = "1C9972D2-AAA2-4EE5-9F28-188B121D2056";
paths = (
{
closed = 1;
nodes = (
"126 700 LINE",
"618 0 LINE",
"514 0 LINE",
"20 700 LINE"
);
},
{
closed = 1;
nodes = (
"272 374 LINE",
"350 336 LINE",
"120 0 LINE",
"16 0 LINE"
);
},
{
closed = 1;
nodes = (
"612 700 LINE",
"364 336 LINE",
"288 376 LINE",
"510 700 LINE"
);
}
);
width = 634;
}
);
leftKerningGroup = X;
rightKerningGroup = X;
unicode = 0058;
},
{
glyphname = Y;
lastChange = "2020-06-24 14:57:10 +0000";
layers = (
{
layerId = "1C9972D2-AAA2-4EE5-9F28-188B121D2056";
paths = (
{
closed = 1;
nodes = (
"338 0 LINE",
"338 306 LINE",
"249 306 LINE",
"249 0 LINE"
);
},
{
closed = 1;
nodes = (
"-10 700 LINE",
"256 265 LINE",
"331 265 LINE",
"597 700 LINE",
"496 700 LINE",
"281 345 LINE",
"306 345 LINE",
"91 700 LINE"
);
}
);
width = 587;
}
);
leftKerningGroup = Y;
rightKerningGroup = Y;
unicode = 0059;
},
{
glyphname = Z;
lastChange = "2020-06-24 14:57:30 +0000";
layers = (
{
layerId = "1C9972D2-AAA2-4EE5-9F28-188B121D2056";
paths = (
{
closed = 1;
nodes = (
"472 652 LINE",
"56 76 LINE",
"56 0 LINE",
"556 0 LINE",
"556 82 LINE",
"122 82 LINE",
"142 50 LINE",
"556 626 LINE",
"556 700 LINE",
"56 700 LINE",
"56 618 LINE",
"490 618 LINE"
);
}
);
width = 612;
}
);
leftKerningGroup = Z;
rightKerningGroup = Z;
unicode = 005A;
},
{
glyphname = a;
lastChange = "2020-06-24 13:18:01 +0000";
layers = (
{
layerId = "1C9972D2-AAA2-4EE5-9F28-188B121D2056";
paths = (
{
closed = 1;
nodes = (
"376 190 LINE SMOOTH",
"376 153 OFFCURVE",
"336 95 OFFCURVE",
"269 64 OFFCURVE",
"229 64 QCURVE SMOOTH",
"185 64 OFFCURVE",
"131 106 OFFCURVE",
"131 145 QCURVE SMOOTH",
"131 185 OFFCURVE",
"194 225 OFFCURVE",
"247 227 QCURVE SMOOTH",
"402 232 LINE",
"402 305 LINE",
"242 300 LINE SMOOTH",
"150 297 OFFCURVE",
"44 217 OFFCURVE",
"44 144 QCURVE SMOOTH",
"44 97 OFFCURVE",
"90 27 OFFCURVE",
"169 -11 OFFCURVE",
"218 -11 QCURVE SMOOTH",
"274 -11 OFFCURVE",
"369 37 OFFCURVE",
"395 81 QCURVE",
"380 100 LINE",
"380 0 LINE",
"461 0 LINE",
"461 334 LINE SMOOTH",
"461 406 OFFCURVE",
"412 487 OFFCURVE",
"323 531 OFFCURVE",
"264 531 QCURVE SMOOTH",
"181 531 OFFCURVE",
"76 450 OFFCURVE",
"63 388 QCURVE",
"146 388 LINE",
"157 418 OFFCURVE",
"215 455 OFFCURVE",
"262 455 QCURVE SMOOTH",
"295 455 OFFCURVE",
"347 431 OFFCURVE",
"376 384 OFFCURVE",
"376 334 QCURVE"
);
}
);
width = 510;
}
);
rightKerningGroup = a;
unicode = 0061;
},
{
glyphname = b;
lastChange = "2020-06-23 14:28:34 +0000";
layers = (
{
guideLines = (
{
position = "{118, 739}";
}
);
layerId = "1C9972D2-AAA2-4EE5-9F28-188B121D2056";
paths = (
{
closed = 1;
nodes = (
"453 -12 OFFCURVE",
"537 105 OFFCURVE",
"537 259 CURVE SMOOTH",
"537 413 OFFCURVE",
"442 530 OFFCURVE",
"307 530 CURVE SMOOTH",
"161 530 OFFCURVE",
"78 390 OFFCURVE",
"78 259 CURVE SMOOTH",
"78 138 OFFCURVE",
"149 -12 OFFCURVE",
"304 -12 CURVE SMOOTH"
);
},
{
closed = 1;
nodes = (
"145 0 LINE",
"141 171 LINE",
"148 403 LINE",
"148 739 LINE",
"62 739 LINE",
"62 0 LINE"
);
},
{
closed = 1;
nodes = (
"204 66 OFFCURVE",
"144 142 OFFCURVE",
"144 257 CURVE SMOOTH",
"144 372 OFFCURVE",
"206 447 OFFCURVE",
"299 447 CURVE SMOOTH",
"394 447 OFFCURVE",
"449 358 OFFCURVE",
"449 259 CURVE SMOOTH",
"449 142 OFFCURVE",
"391 66 OFFCURVE",
"298 66 CURVE SMOOTH"
);
}
);
width = 599;
}
);
leftKerningGroup = b;
rightKerningGroup = b;
unicode = 0062;
},
{
glyphname = c;
lastChange = "2020-06-29 16:17:18 +0000";
layers = (
{
layerId = "1C9972D2-AAA2-4EE5-9F28-188B121D2056";
paths = (
{
closed = 1;
nodes = (
"242 69 OFFCURVE",
"174 116 OFFCURVE",
"136 202 OFFCURVE",
"136 259 QCURVE SMOOTH",
"136 314 OFFCURVE",
"173 400 OFFCURVE",
"241 449 OFFCURVE",
"286 449 QCURVE SMOOTH",
"340 449 OFFCURVE",
"404 391 OFFCURVE",
"416 352 QCURVE",
"502 352 LINE",
"495 396 OFFCURVE",
"442 477 OFFCURVE",
"349 529 OFFCURVE",
"286 529 QCURVE SMOOTH",
"215 529 OFFCURVE",
"107 459 OFFCURVE",
"48 336 OFFCURVE",
"48 259 QCURVE SMOOTH",
"48 181 OFFCURVE",
"107 58 OFFCURVE",
"216 -11 OFFCURVE",
"286 -11 QCURVE SMOOTH",
"346 -11 OFFCURVE",
"440 38 OFFCURVE",
"496 120 OFFCURVE",
"502 168 QCURVE",
"416 168 LINE",
"410 142 OFFCURVE",
"380 98 OFFCURVE",
"326 69 OFFCURVE",
"287 69 QCURVE"
);
}
);
width = 550;
}
);
leftKerningGroup = c;
leftMetricsKey = o;
rightKerningGroup = c;
rightMetricsKey = o;
unicode = 0063;
},
{
glyphname = e;
lastChange = "2020-06-23 14:30:07 +0000";
layers = (
{
layerId = "1C9972D2-AAA2-4EE5-9F28-188B121D2056";
paths = (
{
closed = 1;
nodes = (
"97 313 LINE",
"97 240 LINE",
"505 240 LINE",
"505 284 LINE SMOOTH",
"505 358 OFFCURVE",
"451 469 OFFCURVE",
"351 529 OFFCURVE",
"285 529 QCURVE SMOOTH",
"216 529 OFFCURVE",
"108 465 OFFCURVE",
"48 346 OFFCURVE",
"48 266 QCURVE SMOOTH",
"48 186 OFFCURVE",
"109 53 OFFCURVE",
"219 -11 OFFCURVE",
"292 -11 QCURVE SMOOTH",
"353 -11 OFFCURVE",
"442 32 OFFCURVE",
"492 97 OFFCURVE",
"499 130 QCURVE",
"412 130 LINE",
"404 107 OFFCURVE",
"341 66 OFFCURVE",
"293 66 QCURVE SMOOTH",
"247 66 OFFCURVE",
"177 107 OFFCURVE",
"138 193 OFFCURVE",
"138 238 QCURVE SMOOTH",
"138 254 OFFCURVE",
"138 287 OFFCURVE",
"138 303 QCURVE SMOOTH",
"138 347 OFFCURVE",
"176 415 OFFCURVE",
"240 452 OFFCURVE",
"283 452 QCURVE SMOOTH",
"346 452 OFFCURVE",
"418 373 OFFCURVE",
"418 303 QCURVE SMOOTH",
"418 293 LINE",
"433 313 LINE"
);
}
);
width = 553;
}
);
leftKerningGroup = c;
leftMetricsKey = o;
rightKerningGroup = b;
rightMetricsKey = o;
unicode = 0065;
},
{
glyphname = f;
lastChange = "2020-06-23 14:42:55 +0000";
layers = (
{
layerId = "1C9972D2-AAA2-4EE5-9F28-188B121D2056";
paths = (
{
closed = 1;
nodes = (
"298 520 LINE",
"17 520 LINE",
"17 443 LINE",
"298 443 LINE"
);
},
{
closed = 1;
nodes = (
"103 0 LINE",
"189 0 LINE",
"189 469 LINE",
"189 474 LINE",
"189 566 LINE SMOOTH",
"189 611 OFFCURVE",
"230 650 OFFCURVE",
"269 650 QCURVE SMOOTH",
"298 650 LINE",
"298 727 LINE",
"263 727 LINE SMOOTH",
"186 727 OFFCURVE",
"103 646 OFFCURVE",
"103 568 QCURVE"
);
}
);
width = 366;
}
);
leftKerningGroup = f;
rightKerningGroup = f;
unicode = 0066;
},
{
glyphname = g;
lastChange = "2020-06-24 13:19:22 +0000";
layers = (
{
layerId = "1C9972D2-AAA2-4EE5-9F28-188B121D2056";
paths = (
{
closed = 1;
nodes = (
"520 520 LINE",
"437 520 LINE",
"437 408 LINE",
"448 412 LINE",
"446 439 OFFCURVE",
"404 494 OFFCURVE",
"326 531 OFFCURVE",
"275 531 QCURVE SMOOTH",
"215 531 OFFCURVE",
"110 469 OFFCURVE",
"45 348 OFFCURVE",
"45 262 QCURVE SMOOTH",
"45 176 OFFCURVE",
"109 54 OFFCURVE",
"213 -12 OFFCURVE",
"272 -12 QCURVE SMOOTH",
"325 -12 OFFCURVE",
"403 32 OFFCURVE",
"447 91 OFFCURVE",
"452 120 QCURVE",
"434 118 LINE",
"434 26 LINE SMOOTH",
"434 -26 OFFCURVE",
"399 -91 OFFCURVE",
"333 -130 OFFCURVE",
"286 -130 QCURVE SMOOTH",
"227 -130 OFFCURVE",
"166 -88 OFFCURVE",
"154 -55 QCURVE",
"69 -55 LINE",
"73 -94 OFFCURVE",
"123 -164 OFFCURVE",
"219 -208 OFFCURVE",
"285 -208 QCURVE SMOOTH",
"357 -208 OFFCURVE",
"463 -150 OFFCURVE",
"520 -26 OFFCURVE",
"520 26 QCURVE"
);
},
{
closed = 1;
nodes = (
"239 69 OFFCURVE",
"171 122 OFFCURVE",
"133 208 OFFCURVE",
"133 262 QCURVE SMOOTH",
"133 316 OFFCURVE",
"171 402 OFFCURVE",
"239 450 OFFCURVE",
"283 450 QCURVE SMOOTH",
"329 450 OFFCURVE",
"399 403 OFFCURVE",
"437 319 OFFCURVE",
"437 264 QCURVE SMOOTH",
"437 260 LINE SMOOTH",
"437 205 OFFCURVE",
"399 121 OFFCURVE",
"329 69 OFFCURVE",
"283 69 QCURVE"
);
}
);
width = 565;
}
);
leftKerningGroup = c;
unicode = 0067;
},
{
glyphname = h;
lastChange = "2020-06-23 14:28:24 +0000";
layers = (
{
guideLines = (
{
position = "{118, 739}";
}
);
layerId = "1C9972D2-AAA2-4EE5-9F28-188B121D2056";
paths = (
{
closed = 1;
nodes = (
"499 0 LINE",
"499 333 LINE SMOOTH",
"499 452 OFFCURVE",
"429 532 OFFCURVE",
"312 532 CURVE SMOOTH",
"212 532 OFFCURVE",
"134 469 OFFCURVE",
"115 373 CURVE",
"139 292 LINE",
"161 294 LINE",
"156 413 OFFCURVE",
"221 454 OFFCURVE",
"299 454 CURVE SMOOTH",
"368 454 OFFCURVE",
"413 406 OFFCURVE",
"413 328 CURVE SMOOTH",
"413 0 LINE"
);
},
{
closed = 1;
nodes = (
"161 0 LINE",
"161 381 LINE",
"161 739 LINE",
"75 739 LINE",
"75 0 LINE"
);
}
);
width = 583;
}
);
leftKerningGroup = b;
rightKerningGroup = h;
unicode = 0068;
},
{
glyphname = i;
lastChange = "2020-06-24 13:20:59 +0000";
layers = (
{
layerId = "1C9972D2-AAA2-4EE5-9F28-188B121D2056";
paths = (
{
closed = 1;
nodes = (
"157 0 LINE",
"157 520 LINE",
"71 520 LINE",
"71 0 LINE"
);
},
{
closed = 1;
nodes = (
"147 628 OFFCURVE",
"172 653 OFFCURVE",
"172 684 CURVE SMOOTH",
"172 713 OFFCURVE",
"147 738 OFFCURVE",
"118 738 CURVE SMOOTH",
"87 738 OFFCURVE",
"62 713 OFFCURVE",
"62 684 CURVE SMOOTH",
"62 653 OFFCURVE",
"87 628 OFFCURVE",
"118 628 CURVE SMOOTH"
);
}
);
width = 220;
}
);
leftKerningGroup = i;
rightKerningGroup = i;
unicode = 0069;
},
{
glyphname = j;
lastChange = "2020-06-24 13:20:56 +0000";
layers = (
{
layerId = "1C9972D2-AAA2-4EE5-9F28-188B121D2056";
paths = (
{
closed = 1;
nodes = (
"147 628 OFFCURVE",
"172 653 OFFCURVE",
"172 684 CURVE SMOOTH",
"172 713 OFFCURVE",
"147 738 OFFCURVE",
"118 738 CURVE SMOOTH",
"87 738 OFFCURVE",
"62 713 OFFCURVE",
"62 684 CURVE SMOOTH",
"62 653 OFFCURVE",
"87 628 OFFCURVE",
"118 628 CURVE SMOOTH"
);
},
{
closed = 1;
nodes = (
"-15 -114 LINE",
"-15 -191 LINE",
"21 -191 LINE SMOOTH",
"66 -191 OFFCURVE",
"128 -157 OFFCURVE",
"161 -85 OFFCURVE",
"161 -30 QCURVE SMOOTH",
"161 520 LINE",
"75 520 LINE",
"75 -26 LINE SMOOTH",
"75 -76 OFFCURVE",
"37 -114 OFFCURVE",
"7 -114 QCURVE",
"7 -114 LINE"
);
}
);
width = 235;
}
);
unicode = 006A;
},
{
glyphname = k;
lastChange = "2020-06-23 14:40:27 +0000";
layers = (
{
layerId = "1C9972D2-AAA2-4EE5-9F28-188B121D2056";
paths = (
{
closed = 1;
nodes = (
"75 0 LINE",
"161 0 LINE",
"161 727 LINE",
"75 727 LINE"
);
},
{
closed = 1;
nodes = (
"379 520 LINE",
"140 277 LINE",
"380 0 LINE",
"491 0 LINE",
"240 291 LINE",
"240 268 LINE",
"488 520 LINE"
);
}
);
width = 496;
}
);
leftKerningGroup = b;
rightKerningGroup = k;
unicode = 006B;
},
{
glyphname = l;
lastChange = "2020-06-23 14:37:58 +0000";
layers = (
{
layerId = "1C9972D2-AAA2-4EE5-9F28-188B121D2056";
paths = (
{
closed = 1;
nodes = (
"161 0 LINE",
"161 733 LINE",
"75 733 LINE",
"76 0 LINE"
);
}
);
width = 236;
}
);
leftKerningGroup = b;
rightKerningGroup = d;
unicode = 006C;
},
{
glyphname = m;
lastChange = "2020-06-23 14:13:41 +0000";
layers = (
{
layerId = "1C9972D2-AAA2-4EE5-9F28-188B121D2056";
paths = (
{
closed = 1;
nodes = (
"76 0 LINE",
"76 520 LINE",
"159 520 LINE",
"162 395 LINE",
"162 0 LINE"
);
},
{
closed = 1;
nodes = (
"394 0 LINE",
"394 329 LINE SMOOTH",
"394 413 OFFCURVE",
"347 455 OFFCURVE",
"286 455 CURVE SMOOTH",
"239 455 OFFCURVE",
"200 435 OFFCURVE",
"177 394 CURVE SMOOTH",
"165 372 OFFCURVE",
"162 345 OFFCURVE",
"162 314 CURVE",
"126 392 LINE",
"147 473 OFFCURVE",
"211 533 OFFCURVE",
"301 533 CURVE SMOOTH",
"415 533 OFFCURVE",
"480 453 OFFCURVE",
"480 329 CURVE SMOOTH",
"480 0 LINE"
);
},
{
closed = 1;
nodes = (
"712 0 LINE",
"712 327 LINE SMOOTH",
"712 410 OFFCURVE",
"669 455 OFFCURVE",
"605 455 CURVE SMOOTH",
"526 455 OFFCURVE",
"480 400 OFFCURVE",
"480 333 CURVE",
"429 398 LINE",
"453 478 OFFCURVE",
"528 533 OFFCURVE",
"613 533 CURVE SMOOTH",
"721 533 OFFCURVE",
"798 469 OFFCURVE",
"798 335 CURVE SMOOTH",
"798 0 LINE"
);
}
);
width = 870;
}
);
leftKerningGroup = m;
rightKerningGroup = h;
unicode = 006D;
},
{
glyphname = n;
lastChange = "2020-06-23 13:08:45 +0000";
layers = (
{
layerId = "1C9972D2-AAA2-4EE5-9F28-188B121D2056";
paths = (
{
closed = 1;
nodes = (
"499 0 LINE",
"500 331 LINE SMOOTH",
"500 455 OFFCURVE",
"431 531 OFFCURVE",
"310 531 CURVE SMOOTH",
"208 531 OFFCURVE",
"142 470 OFFCURVE",
"113 366 CURVE",
"139 271 LINE",
"162 308 LINE",
"160 419 OFFCURVE",
"234 452 OFFCURVE",
"296 453 CURVE SMOOTH",
"370 454 OFFCURVE",
"414 405 OFFCURVE",
"414 327 CURVE SMOOTH",
"413 0 LINE"
);
},
{
closed = 1;
nodes = (
"162 0 LINE",
"162 324 LINE",
"159 520 LINE",
"76 520 LINE",
"76 0 LINE"
);
}
);
width = 572;
}
);
leftKerningGroup = m;
rightKerningGroup = h;
unicode = 006E;
},
{
glyphname = o;
lastChange = "2020-06-29 16:24:26 +0000";
layers = (
{
layerId = "1C9972D2-AAA2-4EE5-9F28-188B121D2056";
paths = (
{
closed = 1;
nodes = (
"118 -12 OFFCURVE",
"48 118 OFFCURVE",
"48 261 CURVE SMOOTH",
"48 408 OFFCURVE",
"121 533 OFFCURVE",
"290 533 CURVE SMOOTH",
"462 533 OFFCURVE",
"533 404 OFFCURVE",
"533 260 CURVE SMOOTH",
"533 106 OFFCURVE",
"454 -12 OFFCURVE",
"290 -12 CURVE SMOOTH"
);
},
{
closed = 1;
nodes = (
"414 63 OFFCURVE",
"446 171 OFFCURVE",
"446 260 CURVE SMOOTH",
"446 350 OFFCURVE",
"413 457 OFFCURVE",
"290 457 CURVE SMOOTH",
"164 457 OFFCURVE",
"135 347 OFFCURVE",
"135 260 CURVE SMOOTH",
"135 168 OFFCURVE",
"168 63 OFFCURVE",
"290 63 CURVE SMOOTH"
);
}
);
width = 582;
}
);
unicode = 006F;
},
{
glyphname = p;
lastChange = "2020-06-24 17:53:58 +0000";
layers = (
{
layerId = "1C9972D2-AAA2-4EE5-9F28-188B121D2056";
paths = (
{
closed = 1;
nodes = (
"184 531 OFFCURVE",
"88 402 OFFCURVE",
"88 262 CURVE SMOOTH",
"88 120 OFFCURVE",
"168 -12 OFFCURVE",
"314 -12 CURVE SMOOTH",
"466 -12 OFFCURVE",
"548 106 OFFCURVE",
"547 258 CURVE SMOOTH",
"546 424 OFFCURVE",
"450 531 OFFCURVE",
"316 531 CURVE SMOOTH"
);
},
{
closed = 1;
nodes = (
"72 -201 LINE",
"158 -201 LINE",
"154 349 LINE",
"154 520 LINE",
"72 520 LINE"
);
},
{
closed = 1;
nodes = (
"406 454 OFFCURVE",
"459 366 OFFCURVE",
"459 261 CURVE SMOOTH",
"459 148 OFFCURVE",
"410 66 OFFCURVE",
"309 66 CURVE SMOOTH",
"202 66 OFFCURVE",
"155 149 OFFCURVE",
"155 262 CURVE SMOOTH",
"155 389 OFFCURVE",
"221 454 OFFCURVE",
"309 454 CURVE SMOOTH"
);
}
);
width = 593;
}
);
unicode = 0070;
},
{
glyphname = r;
lastChange = "2020-06-24 14:30:35 +0000";
layers = (
{
layerId = "1C9972D2-AAA2-4EE5-9F28-188B121D2056";
paths = (
{
closed = 1;
nodes = (
"330 522 LINE",
"304 522 LINE SMOOTH",
"243 522 OFFCURVE",
"154 471 OFFCURVE",
"130 418 QCURVE",
"144 404 LINE",
"144 520 LINE",
"62 520 LINE",
"62 0 LINE",
"148 0 LINE",
"148 294 LINE SMOOTH",
"147 341 OFFCURVE",
"187 408 OFFCURVE",
"258 441 OFFCURVE",
"304 442 QCURVE SMOOTH",
"330 442 LINE"
);
}
);
width = 386;
}
);
unicode = 0072;
},
{
glyphname = s;
lastChange = "2020-06-24 14:07:00 +0000";
layers = (
{
layerId = "1C9972D2-AAA2-4EE5-9F28-188B121D2056";
paths = (
{
closed = 1;
nodes = (
"42 142 LINE",
"47 87 OFFCURVE",
"110 19 OFFCURVE",
"202 -11 OFFCURVE",
"254 -12 QCURVE SMOOTH",
"308 -11 OFFCURVE",
"397 26 OFFCURVE",
"448 97 OFFCURVE",
"448 146 QCURVE SMOOTH",
"448 211 OFFCURVE",
"368 280 OFFCURVE",
"302 290 QCURVE SMOOTH",
"210 302 LINE SMOOTH",
"174 306 OFFCURVE",
"138 337 OFFCURVE",
"138 364 QCURVE SMOOTH",
"138 396 OFFCURVE",
"194 439 OFFCURVE",
"242 440 QCURVE SMOOTH",
"285 439 OFFCURVE",
"342 405 OFFCURVE",
"354 372 QCURVE",
"438 372 LINE",
"430 416 OFFCURVE",
"377 481 OFFCURVE",
"294 515 OFFCURVE",
"242 516 QCURVE SMOOTH",
"187 515 OFFCURVE",
"101 474 OFFCURVE",
"52 402 OFFCURVE",
"52 358 QCURVE SMOOTH",
"52 296 OFFCURVE",
"129 230 OFFCURVE",
"196 222 QCURVE SMOOTH",
"286 210 LINE SMOOTH",
"321 204 OFFCURVE",
"362 169 OFFCURVE",
"362 142 QCURVE SMOOTH",
"362 104 OFFCURVE",
"303 65 OFFCURVE",
"252 66 QCURVE SMOOTH",
"201 65 OFFCURVE",
"134 105 OFFCURVE",
"126 142 QCURVE",
"126 142 LINE"
);
}
);
width = 490;
}
);
unicode = 0073;
},
{
glyphname = t;
lastChange = "2020-06-23 14:44:53 +0000";
layers = (
{
layerId = "1C9972D2-AAA2-4EE5-9F28-188B121D2056";
paths = (
{
closed = 1;
nodes = (
"298 520 LINE",
"17 520 LINE",
"17 443 LINE",
"298 443 LINE"
);
},
{
closed = 1;
nodes = (
"187 626 LINE",
"101 626 LINE",
"101 141 LINE SMOOTH",
"101 63 OFFCURVE",
"176 -12 OFFCURVE",
"250 -12 QCURVE SMOOTH",
"298 -12 LINE",
"298 65 LINE",
"264 65 LINE SMOOTH",
"228 65 OFFCURVE",
"187 99 OFFCURVE",
"187 145 QCURVE"
);
}
);
width = 315;
}
);
leftKerningGroup = t;
rightKerningGroup = t;
unicode = 0074;
},
{
glyphname = v;
lastChange = "2020-06-23 14:33:01 +0000";
layers = (
{
layerId = "1C9972D2-AAA2-4EE5-9F28-188B121D2056";
paths = (
{
closed = 1;
nodes = (
"298 0 LINE",
"495 520 LINE",
"402 520 LINE",
"241 75 LINE",
"266 75 LINE",
"105 520 LINE",
"12 520 LINE",
"209 0 LINE",
"209 0 LINE"
);
}
);
width = 507;
}
);
leftKerningGroup = v;
rightKerningGroup = v;
unicode = 0076;
},
{
glyphname = w;
lastChange = "2020-06-23 14:33:42 +0000";
layers = (
{
layerId = "1C9972D2-AAA2-4EE5-9F28-188B121D2056";
paths = (
{
closed = 1;
nodes = (
"592 0 LINE",
"757 520 LINE",
"667 520 LINE",
"539 98 LINE",
"561 98 LINE",
"434 520 LINE",
"347 520 LINE",
"220 98 LINE",
"242 98 LINE",
"114 520 LINE",
"24 520 LINE",
"189 0 LINE",
"271 0 LINE",
"401 438 LINE",
"378 438 LINE",
"509 0 LINE"
);
}
);
width = 781;
}
);
leftKerningGroup = w;
rightKerningGroup = w;
unicode = 0077;
},
{
glyphname = x;
lastChange = "2020-06-23 14:36:53 +0000";
layers = (
{
layerId = "1C9972D2-AAA2-4EE5-9F28-188B121D2056";
paths = (
{
closed = 1;
nodes = (
"117 520 LINE",
"484 0 LINE",
"387 -4 LINE",
"18 519 LINE"
);
},
{
closed = 1;
nodes = (
"288 234 LINE",
"232 290 LINE",
"382 520 LINE",
"481 520 LINE"
);
},
{
closed = 1;
nodes = (
"206 278 LINE",
"263 216 LINE",
"115 0 LINE",
"16 0 LINE"
);
}
);
width = 500;
}
);
unicode = 0078;
},
{
glyphname = y;
lastChange = "2020-06-23 14:34:45 +0000";
layers = (
{
layerId = "1C9972D2-AAA2-4EE5-9F28-188B121D2056";
paths = (
{
closed = 1;
nodes = (
"511 520 LINE",
"418 520 LINE",
"253 75 LINE",
"236 45 LINE",
"142 -191 LINE",
"235 -191 LINE"
);
},
{
closed = 1;
nodes = (
"16 520 LINE",
"223 0 LINE",
"281 75 LINE",
"109 520 LINE"
);
}
);
width = 527;
}
);
leftKerningGroup = v;
rightKerningGroup = y;
unicode = 0079;
},
{
glyphname = z;
lastChange = "2020-06-23 14:35:30 +0000";
layers = (
{
layerId = "1C9972D2-AAA2-4EE5-9F28-188B121D2056";
paths = (
{
closed = 1;
nodes = (
"370 443 LINE",
"354 473 LINE",
"52 67 LINE",
"52 0 LINE",
"442 0 LINE",
"442 77 LINE",
"124 77 LINE",
"140 47 LINE",
"442 452 LINE",
"442 520 LINE",
"52 520 LINE",
"52 443 LINE"
);
}
);
width = 494;
}
);
unicode = 007A;
},
{
glyphname = "Be-cy";
lastChange = "2020-06-24 14:58:21 +0000";
layers = (
{
layerId = "1C9972D2-AAA2-4EE5-9F28-188B121D2056";
paths = (
{
closed = 1;
nodes = (
"142 426 LINE",
"142 346 LINE",
"314 346 LINE SMOOTH",
"382 345 OFFCURVE",
"460 275 OFFCURVE",
"460 214 QCURVE SMOOTH",
"460 153 OFFCURVE",
"382 81 OFFCURVE",
"314 82 QCURVE SMOOTH",
"134 82 LINE",
"162 58 LINE",
"162 642 LINE",
"136 618 LINE",
"502 618 LINE",
"502 700 LINE",
"72 700 LINE",
"72 0 LINE",
"328 0 LINE SMOOTH",
"394 0 OFFCURVE",
"496 55 OFFCURVE",
"551 153 OFFCURVE",
"552 214 QCURVE SMOOTH",
"551 276 OFFCURVE",
"497 373 OFFCURVE",
"394 426 OFFCURVE",
"326 426 QCURVE"
);
}
);
width = 592;
}
);
leftKerningGroup = N;
leftMetricsKey = B;
rightKerningGroup = P;
unicode = 0411;
},
{
glyphname = "Ge-cy";
lastChange = "2020-06-24 14:58:25 +0000";
layers = (
{
layerId = "1C9972D2-AAA2-4EE5-9F28-188B121D2056";
paths = (
{
closed = 1;
nodes = (
"126 618 LINE",
"508 618 LINE",
"508 700 LINE",
"72 700 LINE",
"72 0 LINE",
"162 0 LINE",
"162 652 LINE"
);
}
);
width = 540;
}
);
leftKerningGroup = B;
leftMetricsKey = B;
rightKerningGroup = T;
rightMetricsKey = T;
unicode = 0413;
},
{
glyphname = "De-cy";
lastChange = "2020-06-24 13:25:52 +0000";
layers = (
{
layerId = "1C9972D2-AAA2-4EE5-9F28-188B121D2056";
paths = (
{
closed = 1;
nodes = (
"723 -134 LINE",
"723 83 LINE",
"30 83 LINE",
"30 -134 LINE",
"116 -134 LINE",
"116 35 LINE",
"81 0 LINE",
"672 0 LINE",
"637 35 LINE",
"637 -134 LINE"
);
},
{
closed = 1;
nodes = (
"187 81 LINE",
"208 102 OFFCURVE",
"234 165 OFFCURVE",
"249 264 OFFCURVE",
"254 343 QCURVE SMOOTH",
"275 654 LINE",
"236 618 LINE",
"583 618 LINE",
"548 654 LINE",
"548 67 LINE",
"637 67 LINE",
"637 700 LINE",
"192 700 LINE",
"168 343 LINE SMOOTH",
"163 266 OFFCURVE",
"143 164 OFFCURVE",
"108 99 OFFCURVE",
"81 81 QCURVE"
);
}
);
width = 753;
}
);
leftKerningGroup = A;
rightKerningGroup = N;
unicode = 0414;
},
{
glyphname = "Zhe-cy";
lastChange = "2020-06-24 13:27:24 +0000";
layers = (
{
layerId = "1C9972D2-AAA2-4EE5-9F28-188B121D2056";
paths = (
{
closed = 1;
nodes = (
"796 700 LINE",
"491 363 LINE",
"803 0 LINE",
"914 0 LINE",
"578 396 LINE",
"578 336 LINE",
"907 700 LINE"
);
},
{
closed = 1;
nodes = (
"420 700 LINE",
"420 0 LINE",
"509 0 LINE",
"509 700 LINE"
);
},
{
closed = 1;
nodes = (
"126 0 LINE",
"440 363 LINE",
"133 700 LINE",
"22 700 LINE",
"353 334 LINE",
"353 394 LINE",
"15 0 LINE"
);
}
);
width = 929;
}
);
leftKerningGroup = X;
leftMetricsKey = W;
rightKerningGroup = K;
rightMetricsKey = W;
unicode = 0416;
},
{
glyphname = "Ze-cy";
lastChange = "2020-06-24 13:27:56 +0000";
layers = (
{
layerId = "1C9972D2-AAA2-4EE5-9F28-188B121D2056";
paths = (
{
closed = 1;
nodes = (
"147 524 LINE",
"157 575 OFFCURVE",
"241 632 OFFCURVE",
"304 632 QCURVE SMOOTH",
"346 632 OFFCURVE",
"409 604 OFFCURVE",
"444 552 OFFCURVE",
"444 517 QCURVE SMOOTH",
"444 484 OFFCURVE",
"414 432 OFFCURVE",
"353 402 OFFCURVE",
"308 402 QCURVE SMOOTH",
"207 402 LINE",
"207 321 LINE",
"314 321 LINE SMOOTH",
"385 321 OFFCURVE",
"470 261 OFFCURVE",
"470 201 QCURVE SMOOTH",
"470 162 OFFCURVE",
"432 104 OFFCURVE",
"362 72 OFFCURVE",
"314 72 QCURVE SMOOTH",
"265 72 OFFCURVE",
"192 102 OFFCURVE",
"148 153 OFFCURVE",
"141 186 QCURVE",
"52 186 LINE",
"59 125 OFFCURVE",
"129 36 OFFCURVE",
"242 -11 OFFCURVE",
"314 -11 QCURVE SMOOTH",
"387 -11 OFFCURVE",
"499 44 OFFCURVE",
"561 140 OFFCURVE",
"561 200 QCURVE SMOOTH",
"561 250 OFFCURVE",
"520 321 OFFCURVE",
"462 361 OFFCURVE",
"435 368 QCURVE",
"461 377 OFFCURVE",
"507 419 OFFCURVE",
"535 482 OFFCURVE",
"535 520 QCURVE SMOOTH",
"535 577 OFFCURVE",
"478 665 OFFCURVE",
"373 715 OFFCURVE",
"304 715 QCURVE SMOOTH",
"243 715 OFFCURVE",
"137 672 OFFCURVE",
"66 586 OFFCURVE",
"59 524 QCURVE"
);
}
);
width = 613;
}
);
leftKerningGroup = O;
rightKerningGroup = B;
rightMetricsKey = O;
unicode = 0417;
},
{
glyphname = "Ii-cy";
lastChange = "2020-06-24 13:28:24 +0000";
layers = (
{
layerId = "1C9972D2-AAA2-4EE5-9F28-188B121D2056";
paths = (
{
closed = 1;
nodes = (
"645 0 LINE",
"645 700 LINE",
"557 700 LINE",
"157 114 LINE",
"176 114 LINE",
"176 700 LINE",
"88 700 LINE",
"88 0 LINE",
"176 0 LINE",
"576 586 LINE",
"557 586 LINE",
"557 0 LINE"
);
}
);
width = 739;
}
);
leftKerningGroup = N;
rightKerningGroup = N;
unicode = 0418;
},
{
glyphname = "El-cy";
lastChange = "2020-06-24 13:28:53 +0000";
layers = (
{
layerId = "1C9972D2-AAA2-4EE5-9F28-188B121D2056";
paths = (
{
closed = 1;
nodes = (
"10 81 LINE",
"10 -2 LINE",
"36 -2 LINE SMOOTH",
"105 -2 OFFCURVE",
"187 56 OFFCURVE",
"224 159 OFFCURVE",
"229 233 QCURVE SMOOTH",
"258 660 LINE",
"218 622 LINE",
"553 622 LINE",
"518 658 LINE",
"518 0 LINE",
"607 0 LINE",
"607 704 LINE",
"175 704 LINE",
"143 239 LINE SMOOTH",
"139 181 OFFCURVE",
"115 113 OFFCURVE",
"66 81 OFFCURVE",
"25 81 QCURVE"
);
}
);
width = 695;
}
);
leftKerningGroup = A;
rightKerningGroup = H;
rightMetricsKey = H;
unicode = 041B;
},
{
glyphname = "Pe-cy";
lastChange = "2020-06-24 13:29:22 +0000";
layers = (
{
layerId = "1C9972D2-AAA2-4EE5-9F28-188B121D2056";
paths = (
{
closed = 1;
nodes = (
"639 700 LINE",
"88 700 LINE",
"88 0 LINE",
"177 0 LINE",
"177 661 LINE",
"132 618 LINE",
"595 618 LINE",
"550 661 LINE",
"550 0 LINE",
"639 0 LINE",
"639 0 LINE"
);
}
);
width = 727;
}
);
leftKerningGroup = H;
leftMetricsKey = H;
rightKerningGroup = H;
rightMetricsKey = H;
unicode = 041F;
},
{
glyphname = "U-cy";
lastChange = "2020-06-24 13:29:55 +0000";
layers = (
{
layerId = "1C9972D2-AAA2-4EE5-9F28-188B121D2056";
paths = (
{
closed = 1;
nodes = (
"16 699 LINE",
"288 181 LINE",
"342 263 LINE",
"116 699 LINE"
);
},
{
closed = 1;
nodes = (
"526 699 LINE",
"316 267 LINE",
"290 220 LINE",
"182 0 LINE",
"280 0 LINE",
"623 699 LINE"
);
}
);
width = 639;
}
);
leftKerningGroup = X;
leftMetricsKey = y;
rightKerningGroup = Y;
rightMetricsKey = y;
unicode = 0423;
},
{
glyphname = "Ef-cy";
lastChange = "2020-06-24 13:38:42 +0000";
layers = (
{
layerId = "1C9972D2-AAA2-4EE5-9F28-188B121D2056";
paths = (
{
closed = 1;
nodes = (
"461 700 LINE",
"374 700 LINE",
"374 651 LINE",
"285 649 OFFCURVE",
"138 579 OFFCURVE",
"52 446 OFFCURVE",
"52 355 QCURVE SMOOTH",
"52 264 OFFCURVE",
"138 132 OFFCURVE",
"285 62 OFFCURVE",
"374 60 QCURVE",
"374 0 LINE",
"461 0 LINE",
"461 60 LINE",
"550 62 OFFCURVE",
"697 132 OFFCURVE",
"783 264 OFFCURVE",
"783 355 QCURVE SMOOTH",
"783 446 OFFCURVE",
"697 579 OFFCURVE",
"550 649 OFFCURVE",
"461 651 QCURVE"
);
},
{
closed = 1;
nodes = (
"374 141 LINE",
"305 142 OFFCURVE",
"200 195 OFFCURVE",
"142 291 OFFCURVE",
"142 355 QCURVE SMOOTH",
"142 420 OFFCURVE",
"200 516 OFFCURVE",
"305 568 OFFCURVE",
"374 570 QCURVE"
);
},
{
closed = 1;
nodes = (
"461 570 LINE",
"530 569 OFFCURVE",
"635 516 OFFCURVE",
"693 420 OFFCURVE",
"693 355 QCURVE SMOOTH",
"693 291 OFFCURVE",
"635 195 OFFCURVE",
"530 142 OFFCURVE",
"461 141 QCURVE"
);
}
);
width = 835;
}
);
leftKerningGroup = O;
leftMetricsKey = O;
rightKerningGroup = O;
rightMetricsKey = O;
unicode = 0424;
},
{
glyphname = "Che-cy";
lastChange = "2020-06-29 16:16:36 +0000";
layers = (
{
background = {
paths = (
{
closed = 1;
nodes = (
"640 0 LINE",
"640 720 LINE",
"502 720 LINE",
"502 360 LINE",
"518 420 LINE",
"492 387 OFFCURVE",
"440 360 OFFCURVE",
"364 360 CURVE SMOOTH",
"328 360 OFFCURVE",
"287 366 OFFCURVE",
"262 402 CURVE SMOOTH",
"231 444 OFFCURVE",
"231 514 OFFCURVE",
"232 554 CURVE SMOOTH",
"232 720 LINE",
"94 720 LINE",
"94 524 LINE SMOOTH",
"93 468 OFFCURVE",
"93 383 OFFCURVE",
"146 314 CURVE SMOOTH",
"193 251 OFFCURVE",
"261 232 OFFCURVE",
"338 232 CURVE SMOOTH",
"410 232 OFFCURVE",
"484 250 OFFCURVE",
"522 284 CURVE",
"502 314 LINE",
"502 0 LINE"
);
}
);
};
layerId = "1C9972D2-AAA2-4EE5-9F28-188B121D2056";
paths = (
{
closed = 1;
nodes = (
"534 416 LINE",
"504 385 OFFCURVE",
"409 345 OFFCURVE",
"346 346 QCURVE SMOOTH",
"292 345 OFFCURVE",
"209 384 OFFCURVE",
"161 466 OFFCURVE",
"162 528 QCURVE SMOOTH",
"162 700 LINE",
"72 700 LINE",
"72 526 LINE SMOOTH",
"72 439 OFFCURVE",
"143 320 OFFCURVE",
"263 262 OFFCURVE",
"338 262 QCURVE SMOOTH",
"407 262 OFFCURVE",
"503 297 OFFCURVE",
"536 330 QCURVE"
);
},
{
closed = 1;
nodes = (
"590 700 LINE",
"502 700 LINE",
"502 0 LINE",
"590 0 LINE"
);
}
);
width = 662;
}
);
leftKerningGroup = M;
leftMetricsKey = M;
rightKerningGroup = N;
rightMetricsKey = M;
unicode = 0427;
},
{
glyphname = "Tse-cy";
lastChange = "2020-06-24 14:30:09 +0000";
layers = (
{
layerId = "1C9972D2-AAA2-4EE5-9F28-188B121D2056";
paths = (
{
closed = 1;
nodes = (
"547 700 LINE",
"547 49 LINE",
"636 49 LINE",
"636 700 LINE"
);
},
{
closed = 1;
nodes = (
"722 -134 LINE",
"722 83 LINE",
"142 83 LINE",
"177 50 LINE",
"177 700 LINE",
"88 700 LINE",
"88 0 LINE",
"671 0 LINE",
"636 35 LINE",
"636 -134 LINE"
);
}
);
width = 738;
}
);
leftKerningGroup = H;
leftMetricsKey = H;
rightKerningGroup = "tse-cy";
unicode = 0426;
},
{
glyphname = "Sha-cy";
lastChange = "2020-06-24 13:32:28 +0000";
layers = (
{
layerId = "1C9972D2-AAA2-4EE5-9F28-188B121D2056";
paths = (
{
closed = 1;
nodes = (
"445 700 LINE",
"445 48 LINE",
"534 48 LINE",
"534 700 LINE"
);
},
{
closed = 1;
nodes = (
"802 50 LINE",
"837 83 LINE",
"142 83 LINE",
"177 50 LINE",
"177 700 LINE",
"88 700 LINE",
"88 0 LINE",
"891 0 LINE",
"891 700 LINE",
"802 700 LINE"
);
}
);
width = 979;
}
);
leftKerningGroup = H;
leftMetricsKey = H;
rightKerningGroup = H;
rightMetricsKey = H;
unicode = 0428;
},
{
glyphname = "Shcha-cy";
lastChange = "2020-06-24 13:33:42 +0000";
layers = (
{
components = (
{
name = "Sha-cy";
}
);
layerId = "1C9972D2-AAA2-4EE5-9F28-188B121D2056";
paths = (
{
closed = 1;
nodes = (
"980 -132 LINE",
"980 83 LINE",
"733 83 LINE",
"733 0 LINE",
"885 0 LINE",
"885 -132 LINE"
);
}
);
width = 1023;
}
);
leftKerningGroup = H;
leftMetricsKey = H;
rightKerningGroup = "tse-cy";
unicode = 0429;
},
{
glyphname = "Softsign-cy";
lastChange = "2020-06-24 13:34:12 +0000";
layers = (
{
layerId = "1C9972D2-AAA2-4EE5-9F28-188B121D2056";
paths = (
{
closed = 1;
nodes = (
"134 445 LINE",
"134 364 LINE",
"323 364 LINE SMOOTH",
"371 364 OFFCURVE",
"440 329 OFFCURVE",
"476 265 OFFCURVE",
"476 223 QCURVE SMOOTH",
"476 159 OFFCURVE",
"394 81 OFFCURVE",
"323 81 QCURVE SMOOTH",
"149 81 LINE",
"177 50 LINE",
"177 700 LINE",
"88 700 LINE",
"88 0 LINE",
"335 0 LINE SMOOTH",
"405 0 OFFCURVE",
"510 60 OFFCURVE",
"567 162 OFFCURVE",
"567 223 QCURVE SMOOTH",
"567 285 OFFCURVE",
"511 386 OFFCURVE",
"405 445 OFFCURVE",
"333 445 QCURVE"
);
}
);
width = 629;
}
);
leftKerningGroup = H;
leftMetricsKey = H;
rightKerningGroup = B;
rightMetricsKey = b;
unicode = 042C;
},
{
glyphname = "Hardsign-cy";
lastChange = "2020-06-24 13:34:36 +0000";
layers = (
{
layerId = "1C9972D2-AAA2-4EE5-9F28-188B121D2056";
paths = (
{
closed = 1;
nodes = (
"236 445 LINE",
"236 364 LINE",
"425 364 LINE SMOOTH",
"473 364 OFFCURVE",
"542 329 OFFCURVE",
"578 265 OFFCURVE",
"578 223 QCURVE SMOOTH",
"578 159 OFFCURVE",
"496 81 OFFCURVE",
"425 81 QCURVE SMOOTH",
"251 81 LINE",
"279 50 LINE",
"279 700 LINE",
"35 700 LINE",
"35 618 LINE",
"216 618 LINE",
"190 648 LINE",
"190 0 LINE",
"437 0 LINE SMOOTH",
"507 0 OFFCURVE",
"612 60 OFFCURVE",
"669 162 OFFCURVE",
"669 223 QCURVE SMOOTH",
"669 285 OFFCURVE",
"613 386 OFFCURVE",
"507 445 OFFCURVE",
"435 445 QCURVE"
);
}
);
width = 673;
}
);
leftKerningGroup = T;
rightKerningGroup = B;
unicode = 042A;
},
{
glyphname = "Ereversed-cy";
lastChange = "2020-06-24 13:35:14 +0000";
layers = (
{
layerId = "1C9972D2-AAA2-4EE5-9F28-188B121D2056";
paths = (
{
closed = 1;
nodes = (
"260 400 LINE",
"260 320 LINE",
"625 320 LINE",
"625 400 LINE"
);
},
{
closed = 1;
nodes = (
"52 210 LINE",
"63 158 OFFCURVE",
"131 57 OFFCURVE",
"255 -11 OFFCURVE",
"342 -11 QCURVE SMOOTH",
"433 -11 OFFCURVE",
"578 78 OFFCURVE",
"659 242 OFFCURVE",
"659 352 QCURVE SMOOTH",
"659 461 OFFCURVE",
"579 625 OFFCURVE",
"436 715 OFFCURVE",
"343 715 QCURVE SMOOTH",
"264 715 OFFCURVE",
"142 655 OFFCURVE",
"67 555 OFFCURVE",
"55 495 QCURVE",
"144 495 LINE",
"157 533 OFFCURVE",
"208 594 OFFCURVE",
"289 632 OFFCURVE",
"343 632 QCURVE SMOOTH",
"410 632 OFFCURVE",
"512 565 OFFCURVE",
"568 440 OFFCURVE",
"568 356 QCURVE SMOOTH",
"568 348 LINE SMOOTH",
"568 265 OFFCURVE",
"512 140 OFFCURVE",
"410 72 OFFCURVE",
"343 72 QCURVE SMOOTH",
"285 72 OFFCURVE",
"201 115 OFFCURVE",
"153 178 OFFCURVE",
"142 210 QCURVE"
);
}
);
width = 711;
}
);
leftKerningGroup = X;
leftMetricsKey = O;
rightKerningGroup = O;
rightMetricsKey = O;
unicode = 042D;
},
{
glyphname = "Iu-cy";
lastChange = "2020-06-24 13:35:35 +0000";
layers = (
{
layerId = "1C9972D2-AAA2-4EE5-9F28-188B121D2056";
paths = (
{
closed = 1;
nodes = (
"88 0 LINE",
"177 0 LINE",
"177 704 LINE",
"88 704 LINE"
);
},
{
closed = 1;
nodes = (
"320 403 LINE",
"157 403 LINE",
"157 320 LINE",
"320 320 LINE"
);
},
{
closed = 1;
nodes = (
"511 715 OFFCURVE",
"366 621 OFFCURVE",
"288 456 OFFCURVE",
"288 352 QCURVE SMOOTH",
"288 248 OFFCURVE",
"366 83 OFFCURVE",
"511 -11 OFFCURVE",
"607 -11 QCURVE SMOOTH",
"703 -11 OFFCURVE",
"848 83 OFFCURVE",
"926 248 OFFCURVE",
"926 352 QCURVE SMOOTH",
"926 456 OFFCURVE",
"848 621 OFFCURVE",
"703 715 OFFCURVE",
"607 715 QCURVE"
);
},
{
closed = 1;
nodes = (
"537 72 OFFCURVE",
"434 143 OFFCURVE",
"379 270 OFFCURVE",
"379 352 QCURVE SMOOTH",
"379 434 OFFCURVE",
"434 561 OFFCURVE",
"537 632 OFFCURVE",
"607 632 QCURVE SMOOTH",
"677 632 OFFCURVE",
"780 561 OFFCURVE",
"835 434 OFFCURVE",
"835 352 QCURVE SMOOTH",
"835 270 OFFCURVE",
"780 143 OFFCURVE",
"677 72 OFFCURVE",
"607 72 QCURVE"
);
}
);
width = 978;
}
);
leftKerningGroup = H;
leftMetricsKey = H;
rightKerningGroup = O;
rightMetricsKey = O;
unicode = 042E;
},
{
glyphname = "Ia-cy";
lastChange = "2020-06-24 13:45:03 +0000";
layers = (
{
layerId = "1C9972D2-AAA2-4EE5-9F28-188B121D2056";
paths = (
{
closed = 1;
nodes = (
"324 287 LINE",
"220 287 LINE",
"24 0 LINE",
"129 0 LINE"
);
},
{
closed = 1;
nodes = (
"480 256 LINE",
"480 336 LINE",
"311 336 LINE SMOOTH",
"262 336 OFFCURVE",
"192 373 OFFCURVE",
"156 437 OFFCURVE",
"156 478 QCURVE SMOOTH",
"156 519 OFFCURVE",
"191 582 OFFCURVE",
"261 619 OFFCURVE",
"310 619 QCURVE SMOOTH",
"484 619 LINE",
"457 646 LINE",
"457 0 LINE",
"546 0 LINE",
"546 700 LINE",
"299 700 LINE SMOOTH",
"228 700 OFFCURVE",
"122 642 OFFCURVE",
"65 541 OFFCURVE",
"65 478 QCURVE SMOOTH",
"65 415 OFFCURVE",
"123 314 OFFCURVE",
"228 256 OFFCURVE",
"295 256 QCURVE"
);
}
);
width = 634;
}
);
leftKerningGroup = N;
rightKerningGroup = N;
rightMetricsKey = H;
unicode = 042F;
},
{
glyphname = "be-cy";
lastChange = "2020-06-29 16:24:40 +0000";
layers = (
{
layerId = "1C9972D2-AAA2-4EE5-9F28-188B121D2056";
paths = (
{
closed = 1;
nodes = (
"245 504 OFFCURVE",
"148 449 OFFCURVE",
"122 396 QCURVE",
"132 368 LINE",
"134 444 OFFCURVE",
"167 545 OFFCURVE",
"243 605 OFFCURVE",
"308 618 QCURVE SMOOTH",
"492 652 LINE",
"492 734 LINE",
"290 694 LINE SMOOTH",
"203 675 OFFCURVE",
"98 584 OFFCURVE",
"48 421 OFFCURVE",
"48 296 QCURVE SMOOTH",
"48 199 OFFCURVE",
"110 61 OFFCURVE",
"225 -11 OFFCURVE",
"302 -12 QCURVE SMOOTH",
"374 -11 OFFCURVE",
"482 58 OFFCURVE",
"541 176 OFFCURVE",
"542 248 QCURVE SMOOTH",
"541 328 OFFCURVE",
"481 444 OFFCURVE",
"376 504 OFFCURVE",
"310 504 QCURVE"
);
},
{
closed = 1;
nodes = (
"251 67 OFFCURVE",
"179 112 OFFCURVE",
"139 196 OFFCURVE",
"140 252 QCURVE SMOOTH",
"139 307 OFFCURVE",
"181 386 OFFCURVE",
"254 427 OFFCURVE",
"300 428 QCURVE SMOOTH",
"345 427 OFFCURVE",
"415 381 OFFCURVE",
"453 300 OFFCURVE",
"454 248 QCURVE SMOOTH",
"453 196 OFFCURVE",
"415 113 OFFCURVE",
"345 67 OFFCURVE",
"298 68 QCURVE"
);
}
);
width = 590;
}
);
leftKerningGroup = "be-cy";
leftMetricsKey = o;
rightKerningGroup = o;
unicode = 0431;
},
{
glyphname = "ve-cy";
lastChange = "2020-06-29 16:18:50 +0000";
layers = (
{
layerId = "1C9972D2-AAA2-4EE5-9F28-188B121D2056";
paths = (
{
closed = 1;
nodes = (
"76 520 LINE",
"75 0 LINE",
"301 0 LINE SMOOTH",
"380 0 OFFCURVE",
"469 83 OFFCURVE",
"470 148 QCURVE SMOOTH",
"469 198 OFFCURVE",
"418 264 OFFCURVE",
"382 274 QCURVE",
"409 286 OFFCURVE",
"447 344 OFFCURVE",
"448 386 QCURVE SMOOTH",
"447 445 OFFCURVE",
"366 520 OFFCURVE",
"290 520 QCURVE"
);
},
{
closed = 1;
nodes = (
"126 76 LINE",
"160 38 LINE",
"160 482 LINE",
"126 444 LINE",
"282 444 LINE SMOOTH",
"321 444 OFFCURVE",
"362 409 OFFCURVE",
"362 376 QCURVE SMOOTH",
"362 343 OFFCURVE",
"320 304 OFFCURVE",
"282 304 QCURVE SMOOTH",
"134 304 LINE",
"134 230 LINE",
"292 230 LINE SMOOTH",
"337 229 OFFCURVE",
"383 191 OFFCURVE",
"384 154 QCURVE SMOOTH",
"383 118 OFFCURVE",
"334 74 OFFCURVE",
"292 76 QCURVE"
);
}
);
width = 539;
},
{
associatedMasterId = "1C9972D2-AAA2-4EE5-9F28-188B121D2056";
layerId = "A2873047-0ED6-4C67-9B4D-3870B51BD5C6";
name = "new Layer";
width = 600;
}
);
leftKerningGroup = n;
rightKerningGroup = ve;
unicode = 0432;
},
{
glyphname = "ge-cy";
lastChange = "2020-06-29 16:19:05 +0000";
layers = (
{
layerId = "1C9972D2-AAA2-4EE5-9F28-188B121D2056";
paths = (
{
closed = 1;
nodes = (
"148 478 LINE",
"114 444 LINE",
"396 444 LINE",
"396 520 LINE",
"62 520 LINE",
"62 0 LINE",
"148 0 LINE"
);
}
);
width = 452;
}
);
leftKerningGroup = r;
leftMetricsKey = r;
rightKerningGroup = r;
rightMetricsKey = r;
unicode = 0433;
},
{
glyphname = "de-cy";
lastChange = "2020-06-29 16:19:17 +0000";
layers = (
{
layerId = "1C9972D2-AAA2-4EE5-9F28-188B121D2056";
paths = (
{
closed = 1;
nodes = (
"574 -128 LINE",
"574 78 LINE",
"15 78 LINE",
"15 -128 LINE",
"98 -128 LINE",
"98 35 LINE",
"64 0 LINE",
"525 0 LINE",
"491 35 LINE",
"491 -128 LINE"
);
},
{
closed = 1;
nodes = (
"416 480 LINE",
"414 60 LINE",
"500 60 LINE",
"502 520 LINE",
"140 520 LINE",
"118 251 LINE SMOOTH",
"112 176 OFFCURVE",
"75 80 OFFCURVE",
"46 73 QCURVE",
"151 73 LINE",
"176 97 OFFCURVE",
"195 180 OFFCURVE",
"201 249 QCURVE SMOOTH",
"220 480 LINE",
"182 444 LINE",
"452 444 LINE"
);
}
);
width = 597;
}
);
leftKerningGroup = o;
rightKerningGroup = v;
unicode = 0434;
},
{
glyphname = "zhe-cy";
lastChange = "2020-06-29 16:19:30 +0000";
layers = (
{
layerId = "1C9972D2-AAA2-4EE5-9F28-188B121D2056";
paths = (
{
closed = 1;
nodes = (
"716 520 LINE",
"612 520 LINE",
"396 274 LINE",
"614 0 LINE",
"720 0 LINE",
"488 292 LINE",
"488 260 LINE"
);
},
{
closed = 1;
nodes = (
"346 274 LINE",
"130 520 LINE",
"26 520 LINE",
"256 258 LINE",
"256 290 LINE",
"24 0 LINE",
"130 0 LINE"
);
},
{
closed = 1;
nodes = (
"414 0 LINE",
"414 520 LINE",
"330 520 LINE",
"330 0 LINE"
);
}
);
width = 744;
}
);
leftKerningGroup = x;
leftMetricsKey = w;
rightKerningGroup = x;
rightMetricsKey = w;
unicode = 0436;
},
{
glyphname = "ze-cy";
lastChange = "2020-06-29 16:24:15 +0000";
layers = (
{
background = {
paths = (
{
closed = 1;
nodes = (
"108 378 LINE",
"125 389 OFFCURVE",
"145 401 OFFCURVE",
"162 408 CURVE SMOOTH",
"185 419 OFFCURVE",
"219 429 OFFCURVE",
"250 430 CURVE SMOOTH",
"266 429 OFFCURVE",
"281 426 OFFCURVE",
"292 420 CURVE SMOOTH",
"310 410 OFFCURVE",
"315 395 OFFCURVE",
"316 380 CURVE SMOOTH",
"315 360 OFFCURVE",
"307 339 OFFCURVE",
"270 334 CURVE SMOOTH",
"254 332 OFFCURVE",
"230 331 OFFCURVE",
"214 332 CURVE SMOOTH",
"182 332 LINE",
"182 226 LINE",
"214 226 LINE SMOOTH",
"232 225 OFFCURVE",
"263 226 OFFCURVE",
"280 226 CURVE SMOOTH",
"309 223 OFFCURVE",
"334 205 OFFCURVE",
"334 174 CURVE SMOOTH",
"334 155 OFFCURVE",
"324 136 OFFCURVE",
"304 124 CURVE SMOOTH",
"289 116 OFFCURVE",
"274 112 OFFCURVE",
"252 112 CURVE SMOOTH",
"228 112 OFFCURVE",
"192 117 OFFCURVE",
"164 136 CURVE SMOOTH",
"150 143 OFFCURVE",
"128 161 OFFCURVE",
"116 174 CURVE",
"8 102 LINE",
"26 75 OFFCURVE",
"67 38 OFFCURVE",
"102 20 CURVE SMOOTH",
"139 -1 OFFCURVE",
"189 -15 OFFCURVE",
"250 -16 CURVE SMOOTH",
"291 -15 OFFCURVE",
"346 -8 OFFCURVE",
"394 22 CURVE SMOOTH",
"448 56 OFFCURVE",
"473 105 OFFCURVE",
"474 162 CURVE SMOOTH",
"473 214 OFFCURVE",
"452 256 OFFCURVE",
"418 284 CURVE",
"444 319 OFFCURVE",
"455 355 OFFCURVE",
"456 392 CURVE SMOOTH",
"455 446 OFFCURVE",
"431 490 OFFCURVE",
"390 518 CURVE SMOOTH",
"349 545 OFFCURVE",
"289 555 OFFCURVE",
"248 556 CURVE SMOOTH",
"205 555 OFFCURVE",
"164 544 OFFCURVE",
"130 530 CURVE SMOOTH",
"88 511 OFFCURVE",
"62 494 OFFCURVE",
"34 470 CURVE"
);
}
);
};
layerId = "1C9972D2-AAA2-4EE5-9F28-188B121D2056";
paths = (
{
closed = 1;
nodes = (
"138 370 LINE",
"146 403 OFFCURVE",
"205 451 OFFCURVE",
"252 452 QCURVE SMOOTH",
"295 451 OFFCURVE",
"348 404 OFFCURVE",
"348 368 QCURVE SMOOTH",
"348 333 OFFCURVE",
"299 294 OFFCURVE",
"254 294 QCURVE SMOOTH",
"180 294 LINE",
"180 220 LINE",
"258 220 LINE SMOOTH",
"312 220 OFFCURVE",
"368 183 OFFCURVE",
"368 146 QCURVE SMOOTH",
"368 108 OFFCURVE",
"308 65 OFFCURVE",
"258 66 QCURVE SMOOTH",
"208 65 OFFCURVE",
"142 106 OFFCURVE",
"134 144 QCURVE",
"48 144 LINE",
"54 94 OFFCURVE",
"112 24 OFFCURVE",
"201 -11 OFFCURVE",
"256 -12 QCURVE SMOOTH",
"312 -11 OFFCURVE",
"402 27 OFFCURVE",
"454 98 OFFCURVE",
"454 146 QCURVE SMOOTH",
"454 197 OFFCURVE",
"397 254 OFFCURVE",
"362 264 QCURVE",
"391 275 OFFCURVE",
"433 329 OFFCURVE",
"434 372 QCURVE SMOOTH",
"433 418 OFFCURVE",
"387 489 OFFCURVE",
"306 527 OFFCURVE",
"256 528 QCURVE SMOOTH",
"179 527 OFFCURVE",
"66 444 OFFCURVE",
"58 370 QCURVE"
);
}
);
width = 502;
}
);
leftKerningGroup = x;
leftMetricsKey = o;
rightKerningGroup = "ze-cy";
rightMetricsKey = o;
unicode = 0437;
},
{
glyphname = "ii-cy";
lastChange = "2020-06-29 16:20:25 +0000";
layers = (
{
layerId = "1C9972D2-AAA2-4EE5-9F28-188B121D2056";
paths = (
{
closed = 1;
nodes = (
"502 0 LINE",
"502 520 LINE",
"418 520 LINE",
"134 95 LINE",
"160 95 LINE",
"160 520 LINE",
"76 520 LINE",
"75 0 LINE",
"160 0 LINE",
"444 420 LINE",
"418 420 LINE",
"417 0 LINE",
"417 0 LINE"
);
}
);
width = 580;
}
);
leftKerningGroup = n;
leftMetricsKey = n;
rightKerningGroup = u;
rightMetricsKey = u;
unicode = 0438;
},
{
glyphname = "ka-cy";
lastChange = "2020-06-29 16:31:28 +0000";
layers = (
{
layerId = "1C9972D2-AAA2-4EE5-9F28-188B121D2056";
paths = (
{
closed = 1;
nodes = (
"75 0 LINE",
"161 0 LINE",
"162 520 LINE",
"76 520 LINE"
);
},
{
closed = 1;
nodes = (
"380 520 LINE",
"140 276 LINE",
"380 0 LINE",
"491 0 LINE",
"240 290 LINE",
"240 266 LINE",
"488 520 LINE"
);
}
);
width = 496;
}
);
leftKerningGroup = k;
leftMetricsKey = k;
rightKerningGroup = k;
rightMetricsKey = k;
unicode = 043A;
},
{
glyphname = "el-cy";
lastChange = "2020-06-29 16:20:45 +0000";
layers = (
{
layerId = "1C9972D2-AAA2-4EE5-9F28-188B121D2056";
paths = (
{
closed = 1;
nodes = (
"15 76 LINE",
"15 -2 LINE",
"39 -2 LINE SMOOTH",
"91 -2 OFFCURVE",
"158 37 OFFCURVE",
"194 120 OFFCURVE",
"200 189 QCURVE SMOOTH",
"224 480 LINE",
"186 444 LINE",
"440 444 LINE",
"406 480 LINE",
"405 0 LINE",
"491 0 LINE",
"492 520 LINE",
"144 520 LINE",
"117 195 LINE SMOOTH",
"111 128 OFFCURVE",
"75 76 OFFCURVE",
"29 76 QCURVE"
);
}
);
width = 570;
}
);
leftKerningGroup = o;
rightKerningGroup = u;
rightMetricsKey = u;
unicode = 043B;
},
{
glyphname = "em-cy";
lastChange = "2020-06-29 16:21:00 +0000";
layers = (
{
layerId = "1C9972D2-AAA2-4EE5-9F28-188B121D2056";
paths = (
{
closed = 1;
nodes = (
"180 520 LINE",
"76 520 LINE",
"75 0 LINE",
"159 0 LINE",
"160 448 LINE",
"128 448 LINE",
"327 0 LINE",
"399 0 LINE",
"598 446 LINE",
"566 446 LINE",
"566 0 LINE",
"650 0 LINE",
"650 520 LINE",
"546 520 LINE",
"351 76 LINE",
"375 76 LINE"
);
}
);
width = 728;
}
);
leftKerningGroup = m;
leftMetricsKey = m;
rightKerningGroup = u;
rightMetricsKey = u;
unicode = 043C;
},
{
glyphname = "en-cy";
lastChange = "2020-06-29 16:21:19 +0000";
layers = (
{
layerId = "1C9972D2-AAA2-4EE5-9F28-188B121D2056";
paths = (
{
closed = 1;
nodes = (
"75 0 LINE",
"161 0 LINE",
"162 520 LINE",
"76 520 LINE"
);
},
{
closed = 1;
nodes = (
"496 520 LINE",
"410 520 LINE",
"410 0 LINE",
"496 0 LINE"
);
},
{
closed = 1;
nodes = (
"146 238 LINE",
"426 238 LINE",
"426 316 LINE",
"146 316 LINE"
);
}
);
width = 565;
}
);
leftKerningGroup = n;
leftMetricsKey = m;
rightKerningGroup = u;
rightMetricsKey = u;
unicode = 043D;
},
{
glyphname = "pe-cy";
lastChange = "2020-06-29 16:21:26 +0000";
layers = (
{
layerId = "1C9972D2-AAA2-4EE5-9F28-188B121D2056";
paths = (
{
closed = 1;
nodes = (
"494 520 LINE",
"76 520 LINE",
"75 0 LINE",
"161 0 LINE",
"162 478 LINE",
"126 444 LINE",
"442 444 LINE",
"408 478 LINE",
"407 0 LINE",
"493 0 LINE"
);
}
);
width = 564;
}
);
leftKerningGroup = n;
leftMetricsKey = n;
rightKerningGroup = u;
rightMetricsKey = u;
unicode = 043F;
},
{
glyphname = "te-cy";
lastChange = "2020-06-29 16:21:38 +0000";
layers = (
{
layerId = "1C9972D2-AAA2-4EE5-9F28-188B121D2056";
paths = (
{
closed = 1;
nodes = (
"287 0 LINE",
"288 474 LINE",
"202 474 LINE",
"201 0 LINE"
);
},
{
closed = 1;
nodes = (
"32 520 LINE",
"32 444 LINE",
"458 444 LINE",
"458 520 LINE"
);
}
);
width = 490;
}
);
leftKerningGroup = te;
rightKerningGroup = r;
unicode = 0442;
},
{
glyphname = "ef-cy";
lastChange = "2020-06-29 16:25:41 +0000";
layers = (
{
layerId = "1C9972D2-AAA2-4EE5-9F28-188B121D2056";
paths = (
{
closed = 1;
nodes = (
"394 704 LINE",
"310 704 LINE",
"310 528 LINE",
"234 526 OFFCURVE",
"115 459 OFFCURVE",
"48 342 OFFCURVE",
"48 252 QCURVE SMOOTH",
"48 176 OFFCURVE",
"115 59 OFFCURVE",
"234 -8 OFFCURVE",
"310 -10 QCURVE",
"310 -192 LINE",
"394 -192 LINE",
"394 -10 LINE",
"468 -8 OFFCURVE",
"587 59 OFFCURVE",
"654 176 OFFCURVE",
"654 252 QCURVE SMOOTH",
"654 342 OFFCURVE",
"587 459 OFFCURVE",
"468 528 OFFCURVE",
"394 528 QCURVE"
);
},
{
closed = 1;
nodes = (
"310 68 LINE",
"261 69 OFFCURVE",
"182 113 OFFCURVE",
"135 196 OFFCURVE",
"136 252 QCURVE SMOOTH",
"135 322 OFFCURVE",
"182 405 OFFCURVE",
"259 447 OFFCURVE",
"310 450 QCURVE"
);
},
{
closed = 1;
nodes = (
"567 196 OFFCURVE",
"520 113 OFFCURVE",
"441 69 OFFCURVE",
"394 68 QCURVE",
"394 450 LINE",
"441 449 OFFCURVE",
"520 405 OFFCURVE",
"567 322 OFFCURVE",
"568 252 QCURVE"
);
}
);
width = 702;
}
);
leftKerningGroup = o;
leftMetricsKey = o;
rightKerningGroup = o;
rightMetricsKey = o;
unicode = 0444;
},
{
glyphname = "che-cy";
lastChange = "2020-06-29 16:22:09 +0000";
layers = (
{
layerId = "1C9972D2-AAA2-4EE5-9F28-188B121D2056";
paths = (
{
closed = 1;
nodes = (
"454 520 LINE",
"368 520 LINE",
"367 0 LINE",
"453 0 LINE"
);
},
{
closed = 1;
nodes = (
"401 310 LINE",
"375 285 OFFCURVE",
"313 257 OFFCURVE",
"266 257 QCURVE SMOOTH",
"227 257 OFFCURVE",
"171 285 OFFCURVE",
"141 342 OFFCURVE",
"141 384 QCURVE SMOOTH",
"142 520 LINE",
"56 520 LINE",
"55 382 LINE SMOOTH",
"55 315 OFFCURVE",
"105 224 OFFCURVE",
"196 179 OFFCURVE",
"256 179 QCURVE SMOOTH",
"310 179 OFFCURVE",
"382 211 OFFCURVE",
"406 236 QCURVE"
);
}
);
width = 517;
}
);
leftKerningGroup = n;
leftMetricsKey = d;
rightKerningGroup = u;
rightMetricsKey = u;
unicode = 0447;
},
{
glyphname = "tse-cy";
lastChange = "2020-06-29 16:22:03 +0000";
layers = (
{
layerId = "1C9972D2-AAA2-4EE5-9F28-188B121D2056";
paths = (
{
closed = 1;
nodes = (
"404 520 LINE",
"404 57 LINE",
"490 57 LINE",
"490 520 LINE"
);
},
{
closed = 1;
nodes = (
"564 -128 LINE",
"564 78 LINE",
"126 78 LINE",
"161 43 LINE",
"162 520 LINE",
"76 520 LINE",
"75 0 LINE",
"515 0 LINE",
"481 35 LINE",
"481 -128 LINE"
);
}
);
width = 579;
}
);
leftKerningGroup = n;
leftMetricsKey = n;
rightKerningGroup = "tse-cy";
unicode = 0446;
},
{
glyphname = "sha-cy";
lastChange = "2020-06-29 16:22:14 +0000";
layers = (
{
layerId = "1C9972D2-AAA2-4EE5-9F28-188B121D2056";
paths = (
{
closed = 1;
nodes = (
"356 520 LINE",
"355 50 LINE",
"441 50 LINE",
"442 520 LINE"
);
},
{
closed = 1;
nodes = (
"635 43 LINE",
"670 78 LINE",
"126 78 LINE",
"161 43 LINE",
"162 520 LINE",
"76 520 LINE",
"75 0 LINE",
"721 0 LINE",
"722 520 LINE",
"636 520 LINE"
);
}
);
width = 800;
}
);
leftKerningGroup = n;
leftMetricsKey = m;
rightKerningGroup = u;
rightMetricsKey = u;
unicode = 0448;
},
{
glyphname = "shcha-cy";
lastChange = "2020-04-19 16:54:59 +0000";
layers = (
{
components = (
{
name = "sha-cy";
}
);
layerId = "1C9972D2-AAA2-4EE5-9F28-188B121D2056";
paths = (
{
closed = 1;
nodes = (
"784 -154 LINE",
"784 72 LINE",
"639 72 LINE",
"638 0 LINE",
"711 0 LINE",
"710 -154 LINE"
);
}
);
width = 814;
}
);
leftKerningGroup = n;
leftMetricsKey = n;
rightKerningGroup = "tse-cy";
rightMetricsKey = "tse-cy";
unicode = 0449;
},
{
glyphname = "softsign-cy";
lastChange = "2020-06-29 16:18:02 +0000";
layers = (
{
layerId = "1C9972D2-AAA2-4EE5-9F28-188B121D2056";
paths = (
{
closed = 1;
nodes = (
"151 341 LINE",
"151 265 LINE",
"263 265 LINE SMOOTH",
"311 265 OFFCURVE",
"365 214 OFFCURVE",
"365 172 QCURVE SMOOTH",
"365 130 OFFCURVE",
"311 76 OFFCURVE",
"263 76 QCURVE SMOOTH",
"126 76 LINE",
"161 41 LINE",
"162 520 LINE",
"76 520 LINE",
"75 0 LINE",
"273 0 LINE SMOOTH",
"326 0 OFFCURVE",
"407 45 OFFCURVE",
"451 123 OFFCURVE",
"451 172 QCURVE SMOOTH",
"451 221 OFFCURVE",
"407 298 OFFCURVE",
"327 341 OFFCURVE",
"274 341 QCURVE",
"274 341 LINE"
);
}
);
width = 500;
}
);
leftKerningGroup = n;
leftMetricsKey = n;
rightKerningGroup = b;
rightMetricsKey = b;
unicode = 044C;
},
{
glyphname = "hardsign-cy";
lastChange = "2020-06-29 16:18:16 +0000";
layers = (
{
layerId = "1C9972D2-AAA2-4EE5-9F28-188B121D2056";
paths = (
{
closed = 1;
nodes = (
"246 341 LINE",
"246 265 LINE",
"358 265 LINE SMOOTH",
"406 265 OFFCURVE",
"460 214 OFFCURVE",
"460 172 QCURVE SMOOTH",
"460 130 OFFCURVE",
"406 76 OFFCURVE",
"358 76 QCURVE SMOOTH",
"221 76 LINE",
"256 41 LINE",
"256 520 LINE",
"32 520 LINE",
"32 444 LINE",
"206 444 LINE",
"170 480 LINE",
"170 0 LINE",
"368 0 LINE SMOOTH",
"421 0 OFFCURVE",
"502 45 OFFCURVE",
"546 123 OFFCURVE",
"546 172 QCURVE SMOOTH",
"546 221 OFFCURVE",
"502 298 OFFCURVE",
"422 341 OFFCURVE",
"369 341 QCURVE",
"369 341 LINE"
);
}
);
width = 608;
}
);
rightKerningGroup = b;
rightMetricsKey = b;
unicode = 044A;
},
{
glyphname = "yeru-cy";
lastChange = "2020-06-29 16:17:56 +0000";
layers = (
{
components = (
{
name = "softsign-cy";
}
);
layerId = "1C9972D2-AAA2-4EE5-9F28-188B121D2056";
paths = (
{
closed = 1;
nodes = (
"538 0 LINE",
"628 0 LINE",
"628 520 LINE",
"538 520 LINE"
);
}
);
width = 706;
}
);
leftKerningGroup = n;
leftMetricsKey = n;
rightKerningGroup = u;
rightMetricsKey = u;
unicode = 044B;
},
{
glyphname = "ereversed-cy";
lastChange = "2020-06-24 14:04:17 +0000";
layers = (
{
layerId = "1C9972D2-AAA2-4EE5-9F28-188B121D2056";
paths = (
{
closed = 1;
nodes = (
"222 66 OFFCURVE",
"166 94 OFFCURVE",
"137 134 OFFCURVE",
"132 158 QCURVE",
"48 158 LINE",
"53 111 OFFCURVE",
"108 34 OFFCURVE",
"202 -11 OFFCURVE",
"264 -12 QCURVE SMOOTH",
"334 -11 OFFCURVE",
"442 55 OFFCURVE",
"501 174 OFFCURVE",
"502 252 QCURVE SMOOTH",
"501 330 OFFCURVE",
"443 450 OFFCURVE",
"336 515 OFFCURVE",
"266 516 QCURVE SMOOTH",
"201 515 OFFCURVE",
"108 468 OFFCURVE",
"57 394 OFFCURVE",
"52 354 QCURVE",
"136 354 LINE",
"146 387 OFFCURVE",
"209 438 OFFCURVE",
"266 438 QCURVE SMOOTH",
"310 438 OFFCURVE",
"378 395 OFFCURVE",
"414 313 OFFCURVE",
"414 256 QCURVE SMOOTH",
"414 248 LINE SMOOTH",
"414 192 OFFCURVE",
"377 110 OFFCURVE",
"308 66 OFFCURVE",
"264 66 QCURVE",
"264 66 LINE"
);
},
{
closed = 1;
nodes = (
"448 298 LINE",
"190 298 LINE",
"190 224 LINE",
"448 224 LINE",
"448 224 LINE"
);
}
);
width = 550;
}
);
leftKerningGroup = o;
leftMetricsKey = o;
rightKerningGroup = o;
rightMetricsKey = o;
unicode = 044D;
},
{
glyphname = "iu-cy";
lastChange = "2020-06-29 16:23:07 +0000";
layers = (
{
layerId = "1C9972D2-AAA2-4EE5-9F28-188B121D2056";
paths = (
{
closed = 1;
nodes = (
"293 301 LINE",
"145 301 LINE",
"145 223 LINE",
"293 223 LINE"
);
},
{
closed = 1;
nodes = (
"75 0 LINE",
"161 0 LINE",
"162 520 LINE",
"76 520 LINE"
);
},
{
closed = 1;
nodes = (
"423 522 OFFCURVE",
"314 453 OFFCURVE",
"254 330 OFFCURVE",
"254 254 QCURVE SMOOTH",
"254 178 OFFCURVE",
"314 56 OFFCURVE",
"423 -11 OFFCURVE",
"492 -11 QCURVE SMOOTH",
"563 -11 OFFCURVE",
"671 56 OFFCURVE",
"728 178 OFFCURVE",
"728 254 QCURVE SMOOTH",
"728 330 OFFCURVE",
"671 453 OFFCURVE",
"563 522 OFFCURVE",
"492 522 QCURVE"
);
},
{
closed = 1;
nodes = (
"446 67 OFFCURVE",
"378 113 OFFCURVE",
"342 199 OFFCURVE",
"342 254 QCURVE SMOOTH",
"342 309 OFFCURVE",
"378 393 OFFCURVE",
"446 442 OFFCURVE",
"492 442 QCURVE SMOOTH",
"538 442 OFFCURVE",
"606 393 OFFCURVE",
"640 309 OFFCURVE",
"640 254 QCURVE SMOOTH",
"640 199 OFFCURVE",
"606 113 OFFCURVE",
"538 67 OFFCURVE",
"492 67 QCURVE"
);
}
);
width = 778;
}
);
leftKerningGroup = n;
leftMetricsKey = n;
rightKerningGroup = o;
rightMetricsKey = o;
unicode = 044E;
},
{
glyphname = "ia-cy";
lastChange = "2020-06-29 16:23:17 +0000";
layers = (
{
layerId = "1C9972D2-AAA2-4EE5-9F28-188B121D2056";
paths = (
{
closed = 1;
nodes = (
"390 446 LINE",
"346 492 LINE",
"346 0 LINE",
"432 0 LINE",
"432 520 LINE",
"232 520 LINE SMOOTH",
"176 520 OFFCURVE",
"95 476 OFFCURVE",
"53 401 OFFCURVE",
"54 354 QCURVE SMOOTH",
"55 307 OFFCURVE",
"97 231 OFFCURVE",
"177 188 OFFCURVE",
"232 188 QCURVE SMOOTH",
"362 188 LINE",
"362 262 LINE",
"242 262 LINE SMOOTH",
"210 262 OFFCURVE",
"163 285 OFFCURVE",
"139 327 OFFCURVE",
"140 354 QCURVE SMOOTH",
"141 394 OFFCURVE",
"194 445 OFFCURVE",
"242 446 QCURVE"
);
},
{
closed = 1;
nodes = (
"126 0 LINE",
"286 228 LINE",
"186 228 LINE",
"26 0 LINE"
);
}
);
width = 510;
}
);
leftKerningGroup = a;
rightKerningGroup = u;
rightMetricsKey = u;
unicode = 044F;
},
{
glyphname = zero;
lastChange = "2020-04-19 16:54:59 +0000";
layers = (
{
layerId = "1C9972D2-AAA2-4EE5-9F28-188B121D2056";
paths = (
{
closed = 1;
nodes = (
"546 -12 OFFCURVE",
"652 154 OFFCURVE",
"652 356 CURVE SMOOTH",
"652 560 OFFCURVE",
"546 725 OFFCURVE",
"356 725 CURVE SMOOTH",
"169 725 OFFCURVE",
"60 560 OFFCURVE",
"60 356 CURVE SMOOTH",
"60 154 OFFCURVE",
"169 -12 OFFCURVE",
"356 -12 CURVE SMOOTH"
);
},
{
closed = 1;
nodes = (
"218 67 OFFCURVE",
"143 197 OFFCURVE",
"143 356 CURVE SMOOTH",
"143 517 OFFCURVE",
"218 647 OFFCURVE",
"356 647 CURVE SMOOTH",
"495 647 OFFCURVE",
"569 517 OFFCURVE",
"569 356 CURVE SMOOTH",
"569 197 OFFCURVE",
"495 67 OFFCURVE",
"356 67 CURVE SMOOTH"
);
}
);
width = 712;
}
);
unicode = 0030;
},
{
glyphname = one;
lastChange = "2020-04-19 16:53:55 +0000";
layers = (
{
layerId = "1C9972D2-AAA2-4EE5-9F28-188B121D2056";
paths = (
{
closed = 1;
nodes = (
"337 0 LINE",
"255 0 LINE",
"255 627 LINE",
"100 566 LINE",
"100 652 LINE",
"255 713 LINE",
"337 713 LINE"
);
}
);
width = 437;
}
);
note = one;
unicode = 0031;
},
{
glyphname = two;
lastChange = "2020-04-19 16:53:55 +0000";
layers = (
{
layerId = "1C9972D2-AAA2-4EE5-9F28-188B121D2056";
paths = (
{
closed = 1;
nodes = (
"402 720 OFFCURVE",
"502 643 OFFCURVE",
"502 513 CURVE SMOOTH",
"502 422 OFFCURVE",
"452 358 OFFCURVE",
"404 309 CURVE SMOOTH",
"179 76 LINE",
"527 76 LINE",
"527 0 LINE",
"51 0 LINE",
"50 56 LINE",
"319 335 LINE SMOOTH",
"385 404 OFFCURVE",
"419 431 OFFCURVE",
"420 513 CURVE SMOOTH",
"421 581 OFFCURVE",
"376 645 OFFCURVE",
"273 645 CURVE SMOOTH",
"192 645 OFFCURVE",
"140 607 OFFCURVE",
"116 587 CURVE",
"72 646 LINE",
"115 684 OFFCURVE",
"194 722 OFFCURVE",
"280 721 CURVE SMOOTH"
);
}
);
width = 577;
}
);
note = two;
unicode = 0032;
},
{
glyphname = three;
lastChange = "2020-04-19 16:54:59 +0000";
layers = (
{
layerId = "1C9972D2-AAA2-4EE5-9F28-188B121D2056";
paths = (
{
closed = 1;
nodes = (
"434 -12 OFFCURVE",
"534 81 OFFCURVE",
"534 198 CURVE SMOOTH",
"534 290 OFFCURVE",
"472 339 OFFCURVE",
"390 366 CURVE",
"472 399 OFFCURVE",
"515 455 OFFCURVE",
"515 531 CURVE SMOOTH",
"515 646 OFFCURVE",
"418 724 OFFCURVE",
"281 724 CURVE SMOOTH",
"185 724 OFFCURVE",
"115 686 OFFCURVE",
"61 623 CURVE",
"114 574 LINE",
"157 620 OFFCURVE",
"213 648 OFFCURVE",
"280 648 CURVE SMOOTH",
"374 648 OFFCURVE",
"433 599 OFFCURVE",
"433 526 CURVE SMOOTH",
"433 452 OFFCURVE",
"372 400 OFFCURVE",
"264 400 CURVE SMOOTH",
"201 400 LINE",
"201 325 LINE",
"262 325 LINE SMOOTH",
"383 325 OFFCURVE",
"452 280 OFFCURVE",
"452 199 CURVE SMOOTH",
"452 118 OFFCURVE",
"388 64 OFFCURVE",
"289 64 CURVE SMOOTH",
"210 64 OFFCURVE",
"146 99 OFFCURVE",
"97 154 CURVE",
"40 96 LINE",
"100 33 OFFCURVE",
"186 -12 OFFCURVE",
"288 -12 CURVE SMOOTH"
);
}
);
width = 594;
}
);
note = three;
unicode = 0033;
},
{
glyphname = four;
lastChange = "2020-04-19 16:54:59 +0000";
layers = (
{
layerId = "1C9972D2-AAA2-4EE5-9F28-188B121D2056";
paths = (
{
closed = 1;
nodes = (
"409 708 LINE",
"470 708 LINE",
"469 253 LINE",
"588 253 LINE",
"588 177 LINE",
"469 177 LINE",
"469 0 LINE",
"387 0 LINE",
"387 177 LINE",
"20 177 LINE",
"20 238 LINE",
"409 708 LINE",
"455 647 LINE",
"131 252 LINE",
"388 252 LINE",
"390 668 LINE"
);
}
);
width = 588;
}
);
leftKerningGroup = A;
note = four;
rightKerningGroup = o;
unicode = 0034;
},
{
glyphname = five;
lastChange = "2020-04-19 16:54:59 +0000";
layers = (
{
layerId = "1C9972D2-AAA2-4EE5-9F28-188B121D2056";
paths = (
{
closed = 1;
nodes = (
"83 343 LINE",
"99 328 LINE",
"154 350 OFFCURVE",
"198 358 OFFCURVE",
"250 358 CURVE SMOOTH",
"378 358 OFFCURVE",
"430 307 OFFCURVE",
"430 224 CURVE SMOOTH",
"430 132 OFFCURVE",
"369 64 OFFCURVE",
"264 64 CURVE SMOOTH",
"185 64 OFFCURVE",
"118 103 OFFCURVE",
"88 142 CURVE",
"40 89 LINE",
"67 48 OFFCURVE",
"142 -12 OFFCURVE",
"263 -12 CURVE SMOOTH",
"399 -12 OFFCURVE",
"512 64 OFFCURVE",
"512 218 CURVE SMOOTH",
"512 360 OFFCURVE",
"417 435 OFFCURVE",
"246 435 CURVE SMOOTH",
"217 435 OFFCURVE",
"192 434 OFFCURVE",
"158 420 CURVE",
"174 639 LINE",
"480 637 LINE",
"480 713 LINE",
"109 713 LINE"
);
}
);
width = 562;
}
);
note = five;
rightKerningGroup = fove;
unicode = 0035;
},
{
glyphname = six;
lastChange = "2020-04-19 16:53:55 +0000";
layers = (
{
layerId = "1C9972D2-AAA2-4EE5-9F28-188B121D2056";
paths = (
{
closed = 1;
nodes = (
"164 350 LINE SMOOTH",
"164 563 OFFCURVE",
"248 642 OFFCURVE",
"366 642 CURVE SMOOTH",
"468 642 OFFCURVE",
"520 561 OFFCURVE",
"520 561 CURVE",
"570 621 LINE",
"570 621 OFFCURVE",
"515 719 OFFCURVE",
"366 719 CURVE SMOOTH",
"201 719 OFFCURVE",
"80 597 OFFCURVE",
"80 350 CURVE SMOOTH",
"80 85 OFFCURVE",
"200 -10 OFFCURVE",
"348 -10 CURVE SMOOTH",
"493 -10 OFFCURVE",
"592 95 OFFCURVE",
"592 220 CURVE SMOOTH",
"592 339 OFFCURVE",
"496 438 OFFCURVE",
"354 438 CURVE SMOOTH",
"270 438 OFFCURVE",
"203 403 OFFCURVE",
"164 347 CURVE"
);
},
{
closed = 1;
nodes = (
"446 361 OFFCURVE",
"509 302 OFFCURVE",
"509 220 CURVE SMOOTH",
"509 136 OFFCURVE",
"441 67 OFFCURVE",
"348 67 CURVE SMOOTH",
"271 67 OFFCURVE",
"201 108 OFFCURVE",
"176 218 CURVE",
"191 305 OFFCURVE",
"259 361 OFFCURVE",
"353 361 CURVE SMOOTH"
);
}
);
width = 627;
}
);
note = six;
unicode = 0036;
},
{
glyphname = seven;
lastChange = "2020-04-19 16:54:59 +0000";
layers = (
{
layerId = "1C9972D2-AAA2-4EE5-9F28-188B121D2056";
paths = (
{
closed = 1;
nodes = (
"541 651 LINE",
"199 0 LINE",
"113 0 LINE",
"444 637 LINE",
"40 637 LINE",
"40 713 LINE",
"541 713 LINE"
);
}
);
width = 571;
}
);
leftKerningGroup = seven;
note = seven;
unicode = 0037;
},
{
glyphname = eight;
lastChange = "2020-04-19 16:54:59 +0000";
layers = (
{
layerId = "1C9972D2-AAA2-4EE5-9F28-188B121D2056";
paths = (
{
closed = 1;
nodes = (
"461 -14 OFFCURVE",
"549 85 OFFCURVE",
"549 200 CURVE SMOOTH",
"549 278 OFFCURVE",
"512 341 OFFCURVE",
"444 375 CURVE",
"502 408 OFFCURVE",
"531 465 OFFCURVE",
"531 529 CURVE SMOOTH",
"531 641 OFFCURVE",
"449 725 OFFCURVE",
"302 725 CURVE SMOOTH",
"155 725 OFFCURVE",
"69 641 OFFCURVE",
"69 529 CURVE SMOOTH",
"69 465 OFFCURVE",
"100 408 OFFCURVE",
"159 375 CURVE",
"90 341 OFFCURVE",
"50 278 OFFCURVE",
"50 200 CURVE SMOOTH",
"50 85 OFFCURVE",
"141 -14 OFFCURVE",
"302 -14 CURVE SMOOTH"
);
},
{
closed = 1;
nodes = (
"467 123 OFFCURVE",
"402 62 OFFCURVE",
"302 62 CURVE SMOOTH",
"200 62 OFFCURVE",
"133 123 OFFCURVE",
"133 200 CURVE SMOOTH",
"133 277 OFFCURVE",
"200 336 OFFCURVE",
"302 336 CURVE SMOOTH",
"402 336 OFFCURVE",
"467 277 OFFCURVE",
"467 200 CURVE SMOOTH"
);
},
{
closed = 1;
nodes = (
"202 408 OFFCURVE",
"151 462 OFFCURVE",
"151 530 CURVE SMOOTH",
"151 594 OFFCURVE",
"202 649 OFFCURVE",
"302 649 CURVE SMOOTH",
"400 649 OFFCURVE",
"449 594 OFFCURVE",
"449 530 CURVE SMOOTH",
"449 462 OFFCURVE",
"400 408 OFFCURVE",
"302 408 CURVE SMOOTH"
);
}
);
width = 599;
}
);
note = eight;
unicode = 0038;
},
{
glyphname = period;
lastChange = "2020-04-19 16:54:59 +0000";
layers = (
{
guideLines = (
{
angle = 180;
position = "{-16, 104}";
}
);
layerId = "1C9972D2-AAA2-4EE5-9F28-188B121D2056";
paths = (
{
closed = 1;
nodes = (
"180 25 OFFCURVE",
"153 -1 OFFCURVE",
"118 -1 CURVE SMOOTH",
"81 -1 OFFCURVE",
"55 25 OFFCURVE",
"55 62 CURVE SMOOTH",
"55 97 OFFCURVE",
"81 124 OFFCURVE",
"118 124 CURVE SMOOTH",
"153 124 OFFCURVE",
"180 97 OFFCURVE",
"180 62 CURVE SMOOTH"
);
}
);
width = 235;
}
);
leftKerningGroup = comma;
note = period;
unicode = 002E;
},
{
glyphname = comma;
lastChange = "2020-04-19 16:54:59 +0000";
layers = (
{
guideLines = (
{
angle = 180;
position = "{-35, 104}";
},
{
position = "{-97, -127}";
},
{
angle = 180;
position = "{-5, -47}";
}
);
layerId = "1C9972D2-AAA2-4EE5-9F28-188B121D2056";
paths = (
{
closed = 1;
nodes = (
"212 88 LINE",
"88 -120 LINE",
"35 -92 LINE",
"131 127 LINE"
);
}
);
width = 267;
}
);
leftKerningGroup = comma;
note = comma;
rightKerningGroup = comma;
unicode = 002C;
},
{
glyphname = exclam;
lastChange = "2020-04-19 16:54:59 +0000";
layers = (
{
components = (
{
name = period;
transform = "{1, 0, 0, 1, 35, 0}";
}
);
layerId = "1C9972D2-AAA2-4EE5-9F28-188B121D2056";
paths = (
{
closed = 1;
nodes = (
"184 203 LINE",
"194 713 LINE",
"105 713 LINE",
"117 203 LINE"
);
}
);
width = 325;
}
);
leftKerningGroup = exclam;
note = exclam;
unicode = 0021;
},
{
glyphname = question;
lastChange = "2020-04-19 16:54:59 +0000";
layers = (
{
components = (
{
name = period;
transform = "{1, 0, 0, 1, 96, 0}";
}
);
layerId = "1C9972D2-AAA2-4EE5-9F28-188B121D2056";
paths = (
{
closed = 1;
nodes = (
"64 590 LINE",
"64 590 OFFCURVE",
"123 644 OFFCURVE",
"216 644 CURVE SMOOTH",
"303 644 OFFCURVE",
"358 596 OFFCURVE",
"358 529 CURVE SMOOTH",
"358 417 OFFCURVE",
"185 374 OFFCURVE",
"185 243 CURVE SMOOTH",
"185 197 LINE",
"249 197 LINE",
"251 229 LINE SMOOTH",
"258 346 OFFCURVE",
"440 367 OFFCURVE",
"440 537 CURVE SMOOTH",
"440 650 OFFCURVE",
"354 720 OFFCURVE",
"216 720 CURVE SMOOTH",
"100 720 OFFCURVE",
"30 657 OFFCURVE",
"30 657 CURVE"
);
}
);
width = 480;
}
);
leftKerningGroup = question;
note = question;
rightKerningGroup = question;
unicode = 003F;
},
{
glyphname = bullet;
lastChange = "2020-04-19 16:54:59 +0000";
layers = (
{
layerId = "1C9972D2-AAA2-4EE5-9F28-188B121D2056";
paths = (
{
closed = 1;
nodes = (
"263 424 OFFCURVE",
"316 372 OFFCURVE",
"316 306 CURVE",
"316 241 OFFCURVE",
"263 188 OFFCURVE",
"198 188 CURVE",
"133 188 OFFCURVE",
"80 241 OFFCURVE",
"80 306 CURVE",
"80 372 OFFCURVE",
"133 424 OFFCURVE",
"198 424 CURVE"
);
}
);
width = 396;
}
);
leftKerningGroup = bullet;
unicode = 2022;
},
{
glyphname = asterisk;
lastChange = "2020-04-19 16:54:59 +0000";
layers = (
{
layerId = "1C9972D2-AAA2-4EE5-9F28-188B121D2056";
paths = (
{
closed = 1;
nodes = (
"233 609 LINE",
"351 657 LINE",
"374 590 LINE",
"249 562 LINE",
"332 452 LINE",
"277 411 LINE",
"202 529 LINE",
"132 411 LINE",
"76 452 LINE",
"158 562 LINE",
"35 590 LINE",
"56 658 LINE",
"176 609 LINE",
"169 743 LINE",
"241 743 LINE"
);
}
);
width = 409;
}
);
leftKerningGroup = asterisk;
note = asterisk;
unicode = 002A;
},
{
glyphname = numbersign;
lastChange = "2020-04-19 16:54:59 +0000";
layers = (
{
layerId = "1C9972D2-AAA2-4EE5-9F28-188B121D2056";
paths = (
{
closed = 1;
nodes = (
"372 708 LINE",
"286 708 LINE",
"234 516 LINE",
"74 516 LINE",
"74 434 LINE",
"211 434 LINE",
"170 275 LINE",
"10 275 LINE",
"10 193 LINE",
"146 193 LINE",
"96 1 LINE",
"182 1 LINE",
"233 193 LINE",
"391 193 LINE",
"341 1 LINE",
"427 1 LINE",
"478 193 LINE",
"640 193 LINE",
"640 275 LINE",
"501 275 LINE",
"542 434 LINE",
"704 434 LINE",
"704 516 LINE",
"566 516 LINE",
"617 708 LINE",
"531 708 LINE",
"479 516 LINE",
"321 516 LINE"
);
},
{
closed = 1;
nodes = (
"256 275 LINE",
"297 434 LINE",
"456 434 LINE",
"415 275 LINE"
);
}
);
width = 714;
}
);
leftKerningGroup = numbersign;
note = numbersign;
rightKerningGroup = numbersign;
unicode = 0023;
},
{
glyphname = slash;
lastChange = "2020-04-19 16:54:59 +0000";
layers = (
{
guideLines = (
{
position = "{-160, 713}";
},
{
position = "{-199, -127}";
}
);
layerId = "1C9972D2-AAA2-4EE5-9F28-188B121D2056";
paths = (
{
closed = 1;
nodes = (
"266 713 LINE",
"5 -127 LINE",
"92 -127 LINE",
"354 713 LINE"
);
}
);
width = 359;
}
);
leftKerningGroup = slash;
note = slash;
rightKerningGroup = slash;
unicode = 002F;
},
{
glyphname = backslash;
lastChange = "2020-04-19 16:54:59 +0000";
layers = (
{
guideLines = (
{
position = "{300, 713}";
},
{
position = "{261, -127}";
}
);
layerId = "1C9972D2-AAA2-4EE5-9F28-188B121D2056";
paths = (
{
closed = 1;
nodes = (
"298 -127 LINE",
"385 -127 LINE",
"124 713 LINE",
"36 713 LINE"
);
}
);
width = 359;
}
);
leftKerningGroup = backslash;
rightKerningGroup = backslash;
unicode = 005C;
},
{
glyphname = parenleft;
lastChange = "2020-04-19 16:54:59 +0000";
layers = (
{
guideLines = (
{
position = "{-26, 713}";
},
{
position = "{-65, -127}";
},
{
position = "{-37, 745}";
}
);
layerId = "1C9972D2-AAA2-4EE5-9F28-188B121D2056";
paths = (
{
closed = 1;
nodes = (
"80 113 OFFCURVE",
"180 -60 OFFCURVE",
"329 -125 CURVE",
"364 -56 LINE",
"241 -3 OFFCURVE",
"162 141 OFFCURVE",
"162 309 CURVE SMOOTH",
"162 478 OFFCURVE",
"241 622 OFFCURVE",
"364 675 CURVE",
"329 743 LINE",
"178 678 OFFCURVE",
"80 507 OFFCURVE",
"80 309 CURVE SMOOTH"
);
}
);
width = 384;
}
);
leftKerningGroup = parenleft;
note = parenleft;
rightKerningGroup = parenleft;
unicode = 0028;
},
{
glyphname = parenright;
lastChange = "2020-04-19 16:54:59 +0000";
layers = (
{
guideLines = (
{
position = "{-55, 713}";
},
{
position = "{-94, -127}";
},
{
position = "{-102, -145}";
},
{
position = "{-63, 745}";
}
);
layerId = "1C9972D2-AAA2-4EE5-9F28-188B121D2056";
paths = (
{
closed = 1;
nodes = (
"304 507 OFFCURVE",
"206 678 OFFCURVE",
"55 743 CURVE",
"20 675 LINE",
"143 622 OFFCURVE",
"222 478 OFFCURVE",
"222 309 CURVE SMOOTH",
"222 141 OFFCURVE",
"143 -3 OFFCURVE",
"20 -56 CURVE",
"55 -125 LINE",
"204 -60 OFFCURVE",
"304 113 OFFCURVE",
"304 309 CURVE SMOOTH"
);
}
);
width = 384;
}
);
leftKerningGroup = parenright;
note = parenright;
rightKerningGroup = parenright;
unicode = 0029;
},
{
glyphname = braceleft;
lastChange = "2020-04-19 16:54:59 +0000";
layers = (
{
guideLines = (
{
position = "{-66, 745}";
},
{
position = "{-105, -145}";
}
);
layerId = "1C9972D2-AAA2-4EE5-9F28-188B121D2056";
paths = (
{
closed = 1;
nodes = (
"361 -144 LINE",
"266 -144 LINE SMOOTH",
"174 -144 OFFCURVE",
"118 -89 OFFCURVE",
"124 -7 CURVE SMOOTH",
"137 189 LINE SMOOTH",
"141 235 OFFCURVE",
"99 266 OFFCURVE",
"40 264 CURVE",
"40 340 LINE",
"95 336 OFFCURVE",
"140 367 OFFCURVE",
"137 408 CURVE SMOOTH",
"124 603 LINE SMOOTH",
"118 688 OFFCURVE",
"175 744 OFFCURVE",
"271 744 CURVE SMOOTH",
"361 744 LINE",
"361 667 LINE",
"270 667 LINE SMOOTH",
"223 667 OFFCURVE",
"202 642 OFFCURVE",
"206 597 CURVE SMOOTH",
"220 417 LINE SMOOTH",
"223 352 OFFCURVE",
"175 294 OFFCURVE",
"106 286 CURVE",
"106 316 LINE",
"173 310 OFFCURVE",
"223 249 OFFCURVE",
"220 185 CURVE SMOOTH",
"206 3 LINE SMOOTH",
"202 -41 OFFCURVE",
"224 -67 OFFCURVE",
"270 -67 CURVE SMOOTH",
"361 -67 LINE"
);
}
);
width = 376;
}
);
leftKerningGroup = braceleft;
rightKerningGroup = braceleft;
unicode = 007B;
},
{
glyphname = braceright;
lastChange = "2020-04-19 16:54:59 +0000";
layers = (
{
guideLines = (
{
position = "{8, 713}";
},
{
position = "{-31, -127}";
},
{
angle = 180;
position = "{61, 633}";
},
{
angle = 180;
position = "{61, -47}";
}
);
layerId = "1C9972D2-AAA2-4EE5-9F28-188B121D2056";
paths = (
{
closed = 1;
nodes = (
"135 -67 LINE SMOOTH",
"181 -67 OFFCURVE",
"202 -41 OFFCURVE",
"199 3 CURVE SMOOTH",
"185 185 LINE SMOOTH",
"180 249 OFFCURVE",
"232 310 OFFCURVE",
"299 316 CURVE",
"299 286 LINE",
"230 294 OFFCURVE",
"180 352 OFFCURVE",
"185 417 CURVE SMOOTH",
"199 597 LINE SMOOTH",
"203 642 OFFCURVE",
"182 667 OFFCURVE",
"135 667 CURVE SMOOTH",
"44 667 LINE",
"44 744 LINE",
"134 744 LINE SMOOTH",
"230 744 OFFCURVE",
"287 688 OFFCURVE",
"281 603 CURVE SMOOTH",
"268 408 LINE SMOOTH",
"265 367 OFFCURVE",
"310 336 OFFCURVE",
"365 340 CURVE",
"365 264 LINE",
"306 266 OFFCURVE",
"265 235 OFFCURVE",
"268 189 CURVE SMOOTH",
"281 -7 LINE SMOOTH",
"286 -89 OFFCURVE",
"231 -144 OFFCURVE",
"139 -144 CURVE SMOOTH",
"44 -144 LINE",
"44 -67 LINE"
);
}
);
width = 411;
}
);
leftKerningGroup = parenright;
rightKerningGroup = parenright;
unicode = 007D;
},
{
glyphname = bracketleft;
lastChange = "2020-04-19 16:54:59 +0000";
layers = (
{
guideLines = (
{
position = "{-41, 745}";
},
{
position = "{-80, -145}";
},
{
angle = 180;
position = "{12, 633}";
},
{
angle = 180;
position = "{12, -47}";
}
);
layerId = "1C9972D2-AAA2-4EE5-9F28-188B121D2056";
paths = (
{
closed = 1;
nodes = (
"100 -145 LINE",
"100 745 LINE",
"314 745 LINE",
"314 669 LINE",
"182 669 LINE",
"182 -69 LINE",
"314 -69 LINE",
"314 -145 LINE"
);
}
);
width = 334;
}
);
leftKerningGroup = parenleft;
rightKerningGroup = parenleft;
unicode = 005B;
},
{
glyphname = bracketright;
lastChange = "2020-04-19 16:54:59 +0000";
layers = (
{
guideLines = (
{
position = "{-144, 713}";
},
{
position = "{-183, -127}";
}
);
layerId = "1C9972D2-AAA2-4EE5-9F28-188B121D2056";
paths = (
{
closed = 1;
nodes = (
"20 -69 LINE",
"152 -69 LINE",
"152 669 LINE",
"20 669 LINE",
"20 745 LINE",
"234 745 LINE",
"234 -145 LINE",
"20 -145 LINE"
);
}
);
width = 334;
}
);
leftKerningGroup = parenright;
rightKerningGroup = parenright;
unicode = 005D;
},
{
glyphname = hyphen;
lastChange = "2020-04-19 16:54:59 +0000";
layers = (
{
layerId = "1C9972D2-AAA2-4EE5-9F28-188B121D2056";
paths = (
{
closed = 1;
nodes = (
"289 240 LINE",
"289 316 LINE",
"70 316 LINE",
"70 240 LINE"
);
}
);
width = 359;
}
);
note = hyphen;
unicode = 002D;
},
{
glyphname = endash;
lastChange = "2020-04-19 16:54:59 +0000";
layers = (
{
guideLines = (
{
position = "{-29, 713}";
},
{
position = "{-29, 713}";
},
{
position = "{7, 287}";
},
{
position = "{7, 206}";
}
);
layerId = "1C9972D2-AAA2-4EE5-9F28-188B121D2056";
paths = (
{
closed = 1;
nodes = (
"480 240 LINE",
"480 316 LINE",
"40 316 LINE",
"40 240 LINE"
);
}
);
width = 520;
}
);
rightKerningGroup = hyphen;
unicode = 2013;
},
{
glyphname = emdash;
lastChange = "2020-04-19 16:54:59 +0000";
layers = (
{
guideLines = (
{
position = "{35, 287}";
},
{
position = "{35, 206}";
}
);
layerId = "1C9972D2-AAA2-4EE5-9F28-188B121D2056";
paths = (
{
closed = 1;
nodes = (
"980 240 LINE",
"980 316 LINE",
"40 316 LINE",
"40 240 LINE"
);
}
);
width = 1020;
}
);
leftKerningGroup = hyphen;
rightKerningGroup = hyphen;
unicode = 2014;
},
{
glyphname = guillemetleft;
lastChange = "2020-04-19 16:54:59 +0000";
layers = (
{
layerId = "1C9972D2-AAA2-4EE5-9F28-188B121D2056";
paths = (
{
closed = 1;
nodes = (
"137 262 LINE",
"266 86 LINE",
"173 84 LINE",
"45 263 LINE",
"173 441 LINE",
"267 441 LINE"
);
},
{
closed = 1;
nodes = (
"317 262 LINE",
"446 86 LINE",
"353 84 LINE",
"225 263 LINE",
"353 441 LINE",
"447 441 LINE"
);
}
);
width = 472;
}
);
leftKerningGroup = less;
rightKerningGroup = less;
unicode = 00AB;
},
{
glyphname = guilsinglleft;
lastChange = "2020-04-19 16:54:59 +0000";
layers = (
{
layerId = "1C9972D2-AAA2-4EE5-9F28-188B121D2056";
paths = (
{
closed = 1;
nodes = (
"122 262 LINE",
"251 86 LINE",
"158 84 LINE",
"30 263 LINE",
"158 441 LINE",
"252 441 LINE"
);
}
);
width = 302;
}
);
leftKerningGroup = less;
rightKerningGroup = less;
unicode = 2039;
},
{
glyphname = quotesingle;
lastChange = "2020-04-19 16:54:59 +0000";
layers = (
{
layerId = "1C9972D2-AAA2-4EE5-9F28-188B121D2056";
paths = (
{
closed = 1;
nodes = (
"60 520 LINE",
"142 520 LINE",
"142 713 LINE",
"60 713 LINE"
);
}
);
width = 203;
}
);
leftKerningGroup = quotesingle;
note = quotesingle;
rightKerningGroup = quotesingle;
unicode = 0027;
},
{
glyphname = .notdef;
lastChange = "2020-04-19 16:54:59 +0000";
layers = (
{
layerId = "1C9972D2-AAA2-4EE5-9F28-188B121D2056";
paths = (
{
closed = 1;
nodes = (
"1082.577 216 OFFCURVE",
"1150.158 283.581 OFFCURVE",
"1150.158 366.945 CURVE",
"1150.158 450.309 OFFCURVE",
"1082.577 517.89 OFFCURVE",
"999.213 517.89 CURVE",
"915.85 517.89 OFFCURVE",
"848.268 450.309 OFFCURVE",
"848.268 366.945 CURVE",
"848.268 283.581 OFFCURVE",
"915.85 216 OFFCURVE",
"999.213 216 CURVE"
);
},
{
closed = 1;
nodes = (
"210.945 224.386 LINE",
"210.945 509.504 LINE",
"60 509.504 LINE",
"60 224.29 LINE"
);
},
{
closed = 1;
nodes = (
"523.217 224.386 LINE",
"523.217 509.504 LINE",
"381.01 509.504 LINE",
"381.01 406.56 LINE",
"238.794 516.095 LINE",
"238.794 224.386 LINE"
);
},
{
closed = 1;
nodes = (
"833.492 224.386 LINE",
"833.492 509.504 LINE",
"691.285 509.504 LINE",
"691.285 406.56 LINE",
"549.07 516.095 LINE",
"549.07 224.386 LINE"
);
}
);
width = 1210.16;
}
);
note = .notdef;
},
{
glyphname = dollar;
lastChange = "2020-04-19 16:54:59 +0000";
layers = (
{
layerId = "1C9972D2-AAA2-4EE5-9F28-188B121D2056";
paths = (
{
closed = 1;
nodes = (
"40 71 LINE",
"40 71 OFFCURVE",
"108 -3 OFFCURVE",
"256 -11 CURVE",
"256 -121 LINE",
"326 -121 LINE",
"326 -11 LINE",
"469 2 OFFCURVE",
"543 82 OFFCURVE",
"543 186 CURVE SMOOTH",
"543 288 OFFCURVE",
"492 350 OFFCURVE",
"326 400 CURVE",
"326 643 LINE",
"426 633 OFFCURVE",
"477 585 OFFCURVE",
"477 585 CURVE",
"521 653 LINE",
"521 653 OFFCURVE",
"463 712 OFFCURVE",
"326 721 CURVE",
"326 843 LINE",
"256 843 LINE",
"256 721 LINE",
"122 711 OFFCURVE",
"41 639 OFFCURVE",
"41 533 CURVE SMOOTH",
"41 431 OFFCURVE",
"107 380 OFFCURVE",
"256 333 CURVE",
"256 67 LINE",
"145 75 OFFCURVE",
"84 134 OFFCURVE",
"84 134 CURVE"
);
},
{
closed = 1;
nodes = (
"459 123 OFFCURVE",
"419 77 OFFCURVE",
"326 67 CURVE",
"326 310 LINE",
"429 275 OFFCURVE",
"459 242 OFFCURVE",
"459 185 CURVE SMOOTH"
);
},
{
closed = 1;
nodes = (
"125 596 OFFCURVE",
"179 635 OFFCURVE",
"256 643 CURVE",
"256 422 LINE",
"157 455 OFFCURVE",
"125 484 OFFCURVE",
"125 533 CURVE SMOOTH"
);
}
);
width = 573;
}
);
leftKerningGroup = S;
note = dollar;
rightKerningGroup = S;
unicode = 0024;
},
{
glyphname = euro;
lastChange = "2020-04-19 16:54:59 +0000";
layers = (
{
layerId = "1C9972D2-AAA2-4EE5-9F28-188B121D2056";
paths = (
{
closed = 1;
nodes = (
"456 305 LINE",
"206 305 LINE",
"203 322 OFFCURVE",
"203 339 OFFCURVE",
"203 358 CURVE SMOOTH",
"203 378 OFFCURVE",
"204 396 OFFCURVE",
"206 415 CURVE",
"456 415 LINE",
"456 479 LINE",
"216 479 LINE",
"241 578 OFFCURVE",
"301 646 OFFCURVE",
"416 646 CURVE SMOOTH",
"513 646 OFFCURVE",
"565 576 OFFCURVE",
"565 576 CURVE",
"606 638 LINE",
"606 638 OFFCURVE",
"546 723 OFFCURVE",
"414 723 CURVE SMOOTH",
"256 723 OFFCURVE",
"164 617 OFFCURVE",
"130 479 CURVE",
"40 479 LINE",
"40 415 LINE",
"119 415 LINE",
"118 396 OFFCURVE",
"117 376 OFFCURVE",
"117 358 CURVE SMOOTH",
"117 340 OFFCURVE",
"117 323 OFFCURVE",
"119 305 CURVE",
"40 305 LINE",
"40 241 LINE",
"130 241 LINE",
"162 100 OFFCURVE",
"255 -12 OFFCURVE",
"414 -12 CURVE SMOOTH",
"546 -12 OFFCURVE",
"604 72 OFFCURVE",
"604 72 CURVE",
"565 131 LINE",
"565 131 OFFCURVE",
"513 63 OFFCURVE",
"416 63 CURVE SMOOTH",
"299 63 OFFCURVE",
"238 137 OFFCURVE",
"215 241 CURVE",
"456 241 LINE"
);
}
);
width = 646;
}
);
leftKerningGroup = C;
leftMetricsKey = C;
rightKerningGroup = C;
rightMetricsKey = C;
unicode = 20AC;
},
{
glyphname = ruble;
lastChange = "2020-04-19 16:54:59 +0000";
layers = (
{
layerId = "1C9972D2-AAA2-4EE5-9F28-188B121D2056";
paths = (
{
closed = 1;
nodes = (
"194 0 LINE",
"194 713 LINE",
"276 713 LINE",
"276 0 LINE"
);
},
{
closed = 1;
nodes = (
"235 635 LINE",
"235 713 LINE",
"440 713 LINE SMOOTH",
"577 713 OFFCURVE",
"674 623 OFFCURVE",
"674 498 CURVE SMOOTH",
"674 371 OFFCURVE",
"576 279 OFFCURVE",
"440 279 CURVE SMOOTH",
"65 279 LINE",
"65 357 LINE",
"440 357 LINE SMOOTH",
"532 357 OFFCURVE",
"591 412 OFFCURVE",
"591 498 CURVE SMOOTH",
"591 583 OFFCURVE",
"533 635 OFFCURVE",
"440 635 CURVE SMOOTH"
);
},
{
closed = 1;
nodes = (
"489 195 LINE",
"489 119 LINE",
"65 119 LINE",
"65 195 LINE"
);
}
);
width = 734;
}
);
leftKerningGroup = P;
rightKerningGroup = P;
rightMetricsKey = P;
unicode = 20BD;
},
{
glyphname = divisionslash;
lastChange = "2020-04-19 16:54:59 +0000";
layers = (
{
layerId = "1C9972D2-AAA2-4EE5-9F28-188B121D2056";
paths = (
{
closed = 1;
nodes = (
"623 686 LINE",
"566 731 LINE",
"-1 8 LINE",
"57 -35 LINE"
);
}
);
width = 614;
}
);
unicode = 2215;
},
{
glyphname = plus;
lastChange = "2020-04-19 16:54:59 +0000";
layers = (
{
guideLines = (
{
position = "{24, 345}";
},
{
position = "{30, 273}";
}
);
layerId = "1C9972D2-AAA2-4EE5-9F28-188B121D2056";
paths = (
{
closed = 1;
nodes = (
"60 274 LINE",
"60 344 LINE",
"510 344 LINE",
"510 274 LINE"
);
},
{
closed = 1;
nodes = (
"245 534 LINE",
"321 534 LINE",
"321 84 LINE",
"245 84 LINE"
);
}
);
width = 570;
}
);
note = plus;
unicode = 002B;
},
{
glyphname = minus;
lastChange = "2020-04-19 16:54:59 +0000";
layers = (
{
associatedMasterId = "1C9972D2-AAA2-4EE5-9F28-188B121D2056";
components = (
{
name = strokeshortcomb;
transform = "{1, 0, 0, 1, 0, 45}";
}
);
layerId = "CAA188E2-8C62-414B-93AE-B576BEB044DB";
width = 540;
},
{
guideLines = (
{
position = "{24, 345}";
},
{
position = "{30, 273}";
}
);
layerId = "1C9972D2-AAA2-4EE5-9F28-188B121D2056";
paths = (
{
closed = 1;
nodes = (
"65 273 LINE",
"65 343 LINE",
"485 343 LINE",
"485 273 LINE"
);
}
);
width = 550;
},
{
associatedMasterId = "1C9972D2-AAA2-4EE5-9F28-188B121D2056";
layerId = "A2873047-0ED6-4C67-9B4D-3870B51BD5C6";
name = "new Layer";
width = 600;
},
{
associatedMasterId = "1C9972D2-AAA2-4EE5-9F28-188B121D2056";
layerId = "55314CA7-5524-4D70-B802-98D4FAE25636";
name = "new Layer";
width = 525;
},
{
associatedMasterId = "1C9972D2-AAA2-4EE5-9F28-188B121D2056";
layerId = "13A3DD5D-E91B-4961-8595-F8141D3FA442";
name = "new Layer";
width = 588;
}
);
leftKerningGroup = strokeshortcomb;
rightKerningGroup = strokeshortcomb;
unicode = 2212;
},
{
glyphname = percent;
lastChange = "2020-04-19 16:54:59 +0000";
layers = (
{
layerId = "1C9972D2-AAA2-4EE5-9F28-188B121D2056";
paths = (
{
closed = 1;
nodes = (
"105 374 OFFCURVE",
"32 447 OFFCURVE",
"32 546 CURVE SMOOTH",
"32 644 OFFCURVE",
"106 718 OFFCURVE",
"205 718 CURVE SMOOTH",
"305 718 OFFCURVE",
"378 646 OFFCURVE",
"378 546 CURVE SMOOTH",
"378 446 OFFCURVE",
"306 374 OFFCURVE",
"205 374 CURVE SMOOTH"
);
},
{
closed = 1;
nodes = (
"311 608 OFFCURVE",
"265 655 OFFCURVE",
"205 655 CURVE SMOOTH",
"145 655 OFFCURVE",
"100 609 OFFCURVE",
"100 546 CURVE SMOOTH",
"100 482 OFFCURVE",
"143 437 OFFCURVE",
"205 437 CURVE SMOOTH",
"266 437 OFFCURVE",
"311 483 OFFCURVE",
"311 546 CURVE SMOOTH"
);
},
{
closed = 1;
nodes = (
"526 -16 OFFCURVE",
"452 57 OFFCURVE",
"452 157 CURVE SMOOTH",
"452 256 OFFCURVE",
"525 328 OFFCURVE",
"625 328 CURVE SMOOTH",
"725 328 OFFCURVE",
"798 257 OFFCURVE",
"798 157 CURVE SMOOTH",
"798 57 OFFCURVE",
"725 -16 OFFCURVE",
"625 -16 CURVE SMOOTH"
);
},
{
closed = 1;
nodes = (
"730 220 OFFCURVE",
"686 265 OFFCURVE",
"625 265 CURVE SMOOTH",
"564 265 OFFCURVE",
"519 219 OFFCURVE",
"519 157 CURVE SMOOTH",
"519 94 OFFCURVE",
"564 47 OFFCURVE",
"625 47 CURVE SMOOTH",
"686 47 OFFCURVE",
"730 93 OFFCURVE",
"730 157 CURVE SMOOTH"
);
},
{
closed = 1;
nodes = (
"161 -29 LINE",
"108 9 LINE",
"675 730 LINE",
"728 692 LINE"
);
}
);
width = 805;
}
);
leftKerningGroup = percent;
note = percent;
rightKerningGroup = percent;
unicode = 0025;
},
{
glyphname = at;
lastChange = "2020-04-19 16:54:59 +0000";
layers = (
{
layerId = "1C9972D2-AAA2-4EE5-9F28-188B121D2056";
paths = (
{
closed = 1;
nodes = (
"684 0 LINE",
"667 -14 OFFCURVE",
"640 -30 OFFCURVE",
"618 -41 CURVE SMOOTH",
"579 -60 OFFCURVE",
"531 -66 OFFCURVE",
"466 -66 CURVE SMOOTH",
"316 -66 OFFCURVE",
"165 78 OFFCURVE",
"165 259 CURVE SMOOTH",
"165 459 OFFCURVE",
"333 588 OFFCURVE",
"479 588 CURVE SMOOTH",
"665 588 OFFCURVE",
"810 464 OFFCURVE",
"810 279 CURVE SMOOTH",
"810 163 OFFCURVE",
"761 129 OFFCURVE",
"716 129 CURVE SMOOTH",
"675 129 OFFCURVE",
"659 154 OFFCURVE",
"659 233 CURVE SMOOTH",
"659 442 LINE",
"593 442 LINE",
"593 396 LINE",
"586 404 OFFCURVE",
"581 408 OFFCURVE",
"570 417 CURVE SMOOTH",
"545 436 OFFCURVE",
"518 448 OFFCURVE",
"467 448 CURVE SMOOTH",
"382 448 OFFCURVE",
"295 363 OFFCURVE",
"295 254 CURVE SMOOTH",
"295 140 OFFCURVE",
"386 64 OFFCURVE",
"471 64 CURVE SMOOTH",
"523 64 OFFCURVE",
"550 79 OFFCURVE",
"577 100 CURVE SMOOTH",
"586 107 OFFCURVE",
"603 125 OFFCURVE",
"606 133 CURVE",
"609 126 OFFCURVE",
"618 111 OFFCURVE",
"630 99 CURVE SMOOTH",
"651 78 OFFCURVE",
"677 63 OFFCURVE",
"722 63 CURVE SMOOTH",
"795 63 OFFCURVE",
"879 118 OFFCURVE",
"879 278 CURVE SMOOTH",
"879 498 OFFCURVE",
"704 651 OFFCURVE",
"479 651 CURVE SMOOTH",
"274 651 OFFCURVE",
"96 469 OFFCURVE",
"96 259 CURVE SMOOTH",
"96 40 OFFCURVE",
"294 -133 OFFCURVE",
"466 -133 CURVE SMOOTH",
"537 -133 OFFCURVE",
"601 -121 OFFCURVE",
"640 -101 CURVE SMOOTH",
"663 -89 OFFCURVE",
"703 -66 OFFCURVE",
"721 -51 CURVE"
);
},
{
closed = 1;
nodes = (
"427 130 OFFCURVE",
"365 171 OFFCURVE",
"365 254 CURVE SMOOTH",
"365 354 OFFCURVE",
"439 382 OFFCURVE",
"477 382 CURVE SMOOTH",
"531 382 OFFCURVE",
"592 345 OFFCURVE",
"592 255 CURVE SMOOTH",
"592 155 OFFCURVE",
"524 130 OFFCURVE",
"471 130 CURVE SMOOTH"
);
}
);
width = 952;
}
);
leftKerningGroup = at;
note = at;
rightKerningGroup = at;
unicode = 0040;
},
{
glyphname = ampersand;
lastChange = "2020-04-19 16:54:59 +0000";
layers = (
{
background = {
paths = (
{
closed = 1;
nodes = (
"-8897 300 LINE",
"-8897 427 LINE",
"-9116 427 LINE",
"-9116 365 LINE",
"-9116 283 LINE",
"-9261 417 LINE",
"-9278 434 OFFCURVE",
"-9298 451 OFFCURVE",
"-9309 463 CURVE",
"-9325 480 OFFCURVE",
"-9339 501 OFFCURVE",
"-9339 526 CURVE SMOOTH",
"-9339 562 OFFCURVE",
"-9326 584 OFFCURVE",
"-9295 598 CURVE",
"-9281 603 OFFCURVE",
"-9264 606 OFFCURVE",
"-9245 606 CURVE SMOOTH",
"-9221 606 OFFCURVE",
"-9192 601 OFFCURVE",
"-9171 583 CURVE",
"-9162 574 OFFCURVE",
"-9157 563 OFFCURVE",
"-9154 547 CURVE",
"-9019 574 LINE",
"-9027 607 OFFCURVE",
"-9044 641 OFFCURVE",
"-9070 668 CURVE",
"-9112 714 OFFCURVE",
"-9175 733 OFFCURVE",
"-9241 733 CURVE SMOOTH",
"-9274 733 OFFCURVE",
"-9309 730 OFFCURVE",
"-9343 718 CURVE",
"-9425 689 OFFCURVE",
"-9476 615 OFFCURVE",
"-9476 528 CURVE SMOOTH",
"-9476 475 OFFCURVE",
"-9458 438 OFFCURVE",
"-9422 397 CURVE",
"-9435 387 OFFCURVE",
"-9448 376 OFFCURVE",
"-9459 363 CURVE",
"-9494 322 OFFCURVE",
"-9510 268 OFFCURVE",
"-9510 211 CURVE SMOOTH",
"-9508 153 OFFCURVE",
"-9490 103 OFFCURVE",
"-9452 61 CURVE",
"-9404 9 OFFCURVE",
"-9329 -15 OFFCURVE",
"-9249 -15 CURVE SMOOTH",
"-9225 -15 OFFCURVE",
"-9201 -13 OFFCURVE",
"-9176 -9 CURVE",
"-9133 -2 OFFCURVE",
"-9087 16 OFFCURVE",
"-9049 49 CURVE",
"-8983 -14 LINE",
"-8896 79 LINE",
"-8984 160 LINE",
"-8980 177 OFFCURVE",
"-8978 194 OFFCURVE",
"-8978 210 CURVE",
"-8978 300 LINE"
);
},
{
closed = 1;
nodes = (
"-9214 115 OFFCURVE",
"-9228 114 OFFCURVE",
"-9243 114 CURVE SMOOTH",
"-9280 114 OFFCURVE",
"-9332 125 OFFCURVE",
"-9354 153 CURVE",
"-9367 170 OFFCURVE",
"-9373 190 OFFCURVE",
"-9373 219 CURVE SMOOTH",
"-9373 243 OFFCURVE",
"-9368 262 OFFCURVE",
"-9356 277 CURVE",
"-9349 287 OFFCURVE",
"-9337 296 OFFCURVE",
"-9323 302 CURVE",
"-9147 140 LINE",
"-9161 130 OFFCURVE",
"-9179 122 OFFCURVE",
"-9200 118 CURVE"
);
}
);
};
layerId = "1C9972D2-AAA2-4EE5-9F28-188B121D2056";
paths = (
{
closed = 1;
nodes = (
"508 148 LINE",
"624 370 LINE",
"551 373 LINE",
"461 205 LINE",
"313 388 LINE",
"406 432 OFFCURVE",
"465 485 OFFCURVE",
"465 575 CURVE SMOOTH",
"465 644 OFFCURVE",
"408 720 OFFCURVE",
"307 720 CURVE SMOOTH",
"201 720 OFFCURVE",
"135 642 OFFCURVE",
"135 564 CURVE SMOOTH",
"135 500 OFFCURVE",
"156 467 OFFCURVE",
"197 406 CURVE",
"101 357 OFFCURVE",
"35 302 OFFCURVE",
"35 190 CURVE SMOOTH",
"35 72 OFFCURVE",
"133 -4 OFFCURVE",
"252 -4 CURVE SMOOTH",
"363 -4 OFFCURVE",
"404 37 OFFCURVE",
"457 88 CURVE",
"530 0 LINE",
"632 0 LINE"
);
},
{
closed = 1;
nodes = (
"201 64 OFFCURVE",
"118 94 OFFCURVE",
"118 188 CURVE SMOOTH",
"118 291 OFFCURVE",
"160 316 OFFCURVE",
"236 359 CURVE",
"414 142 LINE",
"367 79 OFFCURVE",
"304 64 OFFCURVE",
"260 64 CURVE SMOOTH"
);
},
{
closed = 1;
nodes = (
"215 635 OFFCURVE",
"272 656 OFFCURVE",
"307 656 CURVE SMOOTH",
"338 656 OFFCURVE",
"388 636 OFFCURVE",
"387 566 CURVE SMOOTH",
"386 488 OFFCURVE",
"331 461 OFFCURVE",
"276 435 CURVE",
"252 466 OFFCURVE",
"215 502 OFFCURVE",
"215 562 CURVE SMOOTH"
);
}
);
width = 632;
}
);
note = ampersand;
unicode = 0026;
},
{
glyphname = paragraph;
lastChange = "2020-04-19 16:54:59 +0000";
layers = (
{
layerId = "1C9972D2-AAA2-4EE5-9F28-188B121D2056";
paths = (
{
closed = 1;
nodes = (
"296 713 LINE",
"296 0 LINE",
"239 0 LINE",
"239 341 LINE",
"200 342 OFFCURVE",
"165 350 OFFCURVE",
"136 366 CURVE SMOOTH",
"107 381 OFFCURVE",
"84 403 OFFCURVE",
"68 430 CURVE SMOOTH",
"52 458 OFFCURVE",
"44 490 OFFCURVE",
"44 527 CURVE SMOOTH",
"44 563 OFFCURVE",
"52 596 OFFCURVE",
"69 624 CURVE SMOOTH",
"86 652 OFFCURVE",
"109 674 OFFCURVE",
"140 690 CURVE SMOOTH",
"170 705 OFFCURVE",
"205 713 OFFCURVE",
"246 713 CURVE SMOOTH"
);
},
{
closed = 1;
nodes = (
"408 0 LINE",
"408 713 LINE",
"465 713 LINE",
"465 0 LINE"
);
},
{
closed = 1;
nodes = (
"266 713 LINE",
"526 713 LINE",
"526 656 LINE",
"266 656 LINE"
);
}
);
width = 562;
}
);
note = paragraph;
unicode = 00B6;
},
{
glyphname = section;
lastChange = "2020-04-19 16:54:59 +0000";
layers = (
{
layerId = "1C9972D2-AAA2-4EE5-9F28-188B121D2056";
paths = (
{
closed = 1;
nodes = (
"365 -120 OFFCURVE",
"462 -68 OFFCURVE",
"466 42 CURVE SMOOTH",
"468 84 OFFCURVE",
"449 118 OFFCURVE",
"395 159 CURVE",
"431 173 OFFCURVE",
"493 220 OFFCURVE",
"493 288 CURVE SMOOTH",
"493 394 OFFCURVE",
"420 427 OFFCURVE",
"310 468 CURVE SMOOTH",
"256 488 OFFCURVE",
"174 514 OFFCURVE",
"174 566 CURVE SMOOTH",
"174 640 OFFCURVE",
"246 655 OFFCURVE",
"281 655 CURVE SMOOTH",
"328 655 OFFCURVE",
"373 632 OFFCURVE",
"396 602 CURVE",
"452 651 LINE",
"425 683 OFFCURVE",
"370 725 OFFCURVE",
"278 725 CURVE SMOOTH",
"173 725 OFFCURVE",
"98 651 OFFCURVE",
"98 575 CURVE SMOOTH",
"98 506 OFFCURVE",
"137 481 OFFCURVE",
"167 462 CURVE",
"117 435 OFFCURVE",
"67 395 OFFCURVE",
"67 320 CURVE SMOOTH",
"67 235 OFFCURVE",
"138 185 OFFCURVE",
"238 152 CURVE SMOOTH",
"322 124 OFFCURVE",
"394 100 OFFCURVE",
"390 42 CURVE SMOOTH",
"386 -18 OFFCURVE",
"334 -49 OFFCURVE",
"264 -49 CURVE SMOOTH",
"210 -49 OFFCURVE",
"161 -21 OFFCURVE",
"132 29 CURVE",
"77 -25 LINE",
"97 -55 OFFCURVE",
"161 -120 OFFCURVE",
"260 -120 CURVE SMOOTH"
);
},
{
closed = 1;
nodes = (
"235 227 LINE SMOOTH",
"176 246 OFFCURVE",
"143 283 OFFCURVE",
"143 323 CURVE SMOOTH",
"143 394 OFFCURVE",
"212 423 OFFCURVE",
"233 423 CURVE",
"301 402 LINE SMOOTH",
"362 383 OFFCURVE",
"420 344 OFFCURVE",
"416 288 CURVE SMOOTH",
"412 229 OFFCURVE",
"358 203 OFFCURVE",
"328 197 CURVE"
);
}
);
width = 544;
}
);
leftKerningGroup = section;
rightKerningGroup = section;
unicode = 00A7;
},
{
glyphname = copyright;
lastChange = "2020-04-19 16:54:59 +0000";
layers = (
{
layerId = "1C9972D2-AAA2-4EE5-9F28-188B121D2056";
paths = (
{
closed = 1;
nodes = (
"40 145 OFFCURVE",
"199 -10 OFFCURVE",
"411 -10 CURVE SMOOTH",
"623 -10 OFFCURVE",
"781 149 OFFCURVE",
"781 357 CURVE SMOOTH",
"781 567 OFFCURVE",
"623 725 OFFCURVE",
"411 725 CURVE SMOOTH",
"199 725 OFFCURVE",
"40 562 OFFCURVE",
"40 357 CURVE SMOOTH"
);
},
{
closed = 1;
nodes = (
"108 525 OFFCURVE",
"238 661 OFFCURVE",
"411 661 CURVE SMOOTH",
"588 661 OFFCURVE",
"714 531 OFFCURVE",
"714 357 CURVE SMOOTH",
"714 187 OFFCURVE",
"586 53 OFFCURVE",
"411 53 CURVE SMOOTH",
"238 53 OFFCURVE",
"108 188 OFFCURVE",
"108 357 CURVE SMOOTH"
);
},
{
closed = 1;
nodes = (
"539 275 LINE",
"507 238 OFFCURVE",
"467 221 OFFCURVE",
"426 221 CURVE SMOOTH",
"360 221 OFFCURVE",
"305 260 OFFCURVE",
"292 326 CURVE SMOOTH",
"289 338 OFFCURVE",
"288 350 OFFCURVE",
"288 362 CURVE SMOOTH",
"288 426 OFFCURVE",
"324 481 OFFCURVE",
"386 496 CURVE SMOOTH",
"397 498 OFFCURVE",
"409 500 OFFCURVE",
"421 500 CURVE SMOOTH",
"460 500 OFFCURVE",
"499 484 OFFCURVE",
"527 457 CURVE",
"570 504 LINE",
"531 547 OFFCURVE",
"472 566 OFFCURVE",
"411 566 CURVE SMOOTH",
"297 566 OFFCURVE",
"210 476 OFFCURVE",
"210 361 CURVE SMOOTH",
"210 236 OFFCURVE",
"298 154 OFFCURVE",
"422 154 CURVE SMOOTH",
"481 154 OFFCURVE",
"544 182 OFFCURVE",
"578 228 CURVE"
);
}
);
width = 821;
}
);
leftMetricsKey = O;
rightMetricsKey = O;
unicode = 00A9;
},
{
glyphname = registered;
lastChange = "2020-04-19 16:54:59 +0000";
layers = (
{
layerId = "1C9972D2-AAA2-4EE5-9F28-188B121D2056";
paths = (
{
closed = 1;
nodes = (
"40 356 OFFCURVE",
"149 249 OFFCURVE",
"285 249 CURVE SMOOTH",
"418 249 OFFCURVE",
"527 356 OFFCURVE",
"527 490 CURVE SMOOTH",
"527 622 OFFCURVE",
"418 730 OFFCURVE",
"285 730 CURVE SMOOTH",
"149 730 OFFCURVE",
"40 622 OFFCURVE",
"40 490 CURVE SMOOTH"
);
},
{
closed = 1;
nodes = (
"83 596 OFFCURVE",
"172 687 OFFCURVE",
"284 687 CURVE SMOOTH",
"391 687 OFFCURVE",
"484 600 OFFCURVE",
"484 489 CURVE SMOOTH",
"484 384 OFFCURVE",
"394 291 OFFCURVE",
"284 291 CURVE SMOOTH",
"173 291 OFFCURVE",
"83 378 OFFCURVE",
"83 489 CURVE SMOOTH"
);
},
{
closed = 1;
nodes = (
"241 350 LINE",
"241 444 LINE",
"280 444 LINE",
"341 350 LINE",
"412 350 LINE",
"336 463 LINE",
"370 475 OFFCURVE",
"394 505 OFFCURVE",
"394 545 CURVE SMOOTH",
"394 593 OFFCURVE",
"367 635 OFFCURVE",
"278 635 CURVE SMOOTH",
"180 635 LINE",
"180 350 LINE"
);
},
{
closed = 1;
nodes = (
"328 513 OFFCURVE",
"303 498 OFFCURVE",
"280 498 CURVE SMOOTH",
"241 498 LINE",
"241 582 LINE",
"277 582 LINE SMOOTH",
"310 582 OFFCURVE",
"328 572 OFFCURVE",
"328 539 CURVE SMOOTH"
);
}
);
width = 567;
}
);
leftMetricsKey = O;
rightMetricsKey = O;
unicode = 00AE;
},
{
glyphname = trademark;
lastChange = "2020-04-19 16:54:59 +0000";
layers = (
{
layerId = "1C9972D2-AAA2-4EE5-9F28-188B121D2056";
paths = (
{
closed = 1;
nodes = (
"153 415 LINE",
"153 681 LINE",
"223 681 LINE",
"223 415 LINE"
);
},
{
closed = 1;
nodes = (
"66 643 LINE",
"66 713 LINE",
"307 713 LINE",
"307 643 LINE"
);
},
{
closed = 1;
nodes = (
"511 526 LINE",
"494 526 LINE",
"356 676 LINE",
"418 705 LINE",
"418 415 LINE",
"348 415 LINE",
"348 713 LINE",
"415 713 LINE",
"539 576 LINE",
"468 576 LINE",
"591 713 LINE",
"657 713 LINE",
"657 415 LINE",
"588 415 LINE",
"588 697 LINE",
"647 675 LINE"
);
}
);
width = 717;
}
);
leftKerningGroup = trademark;
unicode = 2122;
},
{
glyphname = degree;
lastChange = "2020-04-19 16:54:59 +0000";
layers = (
{
layerId = "1C9972D2-AAA2-4EE5-9F28-188B121D2056";
paths = (
{
closed = 1;
nodes = (
"102 400 OFFCURVE",
"32 470 OFFCURVE",
"32 564 CURVE SMOOTH",
"32 657 OFFCURVE",
"103 728 OFFCURVE",
"197 728 CURVE SMOOTH",
"291 728 OFFCURVE",
"362 658 OFFCURVE",
"362 564 CURVE SMOOTH",
"362 471 OFFCURVE",
"296 400 OFFCURVE",
"197 400 CURVE SMOOTH"
);
},
{
closed = 1;
nodes = (
"297 623 OFFCURVE",
"254 667 OFFCURVE",
"197 667 CURVE SMOOTH",
"140 667 OFFCURVE",
"97 623 OFFCURVE",
"97 564 CURVE SMOOTH",
"97 503 OFFCURVE",
"138 461 OFFCURVE",
"197 461 CURVE SMOOTH",
"256 461 OFFCURVE",
"297 503 OFFCURVE",
"297 564 CURVE SMOOTH"
);
}
);
width = 394;
}
);
unicode = 00B0;
},
{
glyphname = circumflexcomb;
lastChange = "2020-04-19 16:54:59 +0000";
layers = (
{
layerId = "1C9972D2-AAA2-4EE5-9F28-188B121D2056";
paths = (
{
closed = 1;
nodes = (
"464 788 LINE",
"376 788 LINE",
"301 876 LINE",
"227 788 LINE",
"138 788 LINE",
"262 939 LINE",
"341 939 LINE"
);
}
);
width = 600;
}
);
unicode = 0302;
},
{
glyphname = ring;
lastChange = "2020-04-19 16:54:59 +0000";
layers = (
{
anchors = (
{
name = _top;
position = "{336, 1792}";
}
);
guideLines = (
{
alignment = center;
position = "{980, 1956}";
}
);
layerId = "1C9972D2-AAA2-4EE5-9F28-188B121D2056";
paths = (
{
closed = 1;
nodes = (
"184 806 OFFCURVE",
"230 763 OFFCURVE",
"287 763 CURVE SMOOTH",
"344 763 OFFCURVE",
"390 806 OFFCURVE",
"390 861 CURVE SMOOTH",
"390 916 OFFCURVE",
"344 959 OFFCURVE",
"287 959 CURVE SMOOTH",
"230 959 OFFCURVE",
"184 916 OFFCURVE",
"184 861 CURVE SMOOTH"
);
},
{
closed = 1;
nodes = (
"252 882 OFFCURVE",
"267 897 OFFCURVE",
"286 897 CURVE SMOOTH",
"306 897 OFFCURVE",
"321 882 OFFCURVE",
"321 862 CURVE SMOOTH",
"321 842 OFFCURVE",
"306 827 OFFCURVE",
"286 827 CURVE SMOOTH",
"267 827 OFFCURVE",
"252 842 OFFCURVE",
"252 862 CURVE SMOOTH"
);
}
);
width = 672;
}
);
note = "recipe: offset curve 30, no auto; then redrawn two circles manually for perfect fit.";
unicode = 02DA;
userData = {
"interface.width-adjustments" = (
-16
);
};
},
{
glyphname = tilde;
lastChange = "2020-04-19 16:54:59 +0000";
layers = (
{
anchors = (
{
name = _top;
position = "{700, 1792}";
},
{
name = top;
position = "{700, 2304}";
}
);
layerId = "1C9972D2-AAA2-4EE5-9F28-188B121D2056";
paths = (
{
closed = 1;
nodes = (
"193 787 LINE",
"193 806 LINE",
"193 826 OFFCURVE",
"203 851 OFFCURVE",
"223 851 CURVE",
"237 851 OFFCURVE",
"253 845 OFFCURVE",
"279 816 CURVE",
"299 796 OFFCURVE",
"329 788 OFFCURVE",
"357 788 CURVE",
"415 788 OFFCURVE",
"449 851 OFFCURVE",
"449 908 CURVE",
"449 926 LINE",
"381 926 LINE",
"381 903 LINE",
"381 885 OFFCURVE",
"369 861 OFFCURVE",
"350 861 CURVE",
"332 861 OFFCURVE",
"320 875 OFFCURVE",
"303 890 CURVE",
"281 911 OFFCURVE",
"251 926 OFFCURVE",
"222 926 CURVE",
"165 926 OFFCURVE",
"125 870 OFFCURVE",
"125 813 CURVE",
"125 788 LINE"
);
}
);
width = 1400;
}
);
unicode = 02DC;
userData = {
interface.gridadjust.original = "{'width': 1352, 'leftMargin': 175, 'rightMargin': 194}";
"interface.width-adjustments" = (
-16
);
};
},
{
glyphname = macron;
lastChange = "2020-04-19 16:54:59 +0000";
layers = (
{
anchors = (
{
name = _top;
position = "{412, 1792}";
}
);
guideLines = (
{
position = "{752, 1880}";
}
);
layerId = "1C9972D2-AAA2-4EE5-9F28-188B121D2056";
paths = (
{
closed = 1;
nodes = (
"419 819 LINE",
"419 891 LINE",
"108 891 LINE",
"108 819 LINE"
);
}
);
width = 824;
}
);
unicode = 00AF;
userData = {
interface.gridadjust.original = "{'width': 1310, 'leftMargin': 198, 'rightMargin': 173}";
"interface.width-adjustments" = (
-16
);
};
},
{
glyphname = cedilla;
lastChange = "2020-04-19 16:54:59 +0000";
layers = (
{
layerId = "1C9972D2-AAA2-4EE5-9F28-188B121D2056";
paths = (
{
closed = 1;
nodes = (
"326 -200 OFFCURVE",
"367 -166 OFFCURVE",
"370 -123 CURVE SMOOTH",
"373 -86 OFFCURVE",
"351 -34 OFFCURVE",
"290 -34 CURVE",
"310 9 LINE",
"243 2 LINE",
"211 -66 LINE",
"244 -98 LINE",
"284 -71 OFFCURVE",
"308 -94 OFFCURVE",
"306 -115 CURVE SMOOTH",
"305 -128 OFFCURVE",
"295 -143 OFFCURVE",
"262 -143 CURVE SMOOTH",
"254 -143 OFFCURVE",
"219 -138 OFFCURVE",
"201 -111 CURVE",
"173 -159 LINE",
"183 -175 OFFCURVE",
"218 -200 OFFCURVE",
"272 -200 CURVE SMOOTH"
);
}
);
width = 600;
}
);
unicode = 00B8;
},
{
export = 0;
glyphname = dieresiscomb;
lastChange = "2020-06-24 13:49:37 +0000";
layers = (
{
layerId = "1C9972D2-AAA2-4EE5-9F28-188B121D2056";
paths = (
{
closed = 1;
nodes = (
"119 811 OFFCURVE",
"145 837 OFFCURVE",
"145 864 CURVE SMOOTH",
"145 892 OFFCURVE",
"119 917 OFFCURVE",
"92 917 CURVE SMOOTH",
"64 917 OFFCURVE",
"39 892 OFFCURVE",
"39 864 CURVE SMOOTH",
"39 837 OFFCURVE",
"64 811 OFFCURVE",
"92 811 CURVE SMOOTH"
);
},
{
closed = 1;
nodes = (
"310 811 OFFCURVE",
"335 837 OFFCURVE",
"335 864 CURVE SMOOTH",
"335 892 OFFCURVE",
"310 917 OFFCURVE",
"282 917 CURVE SMOOTH",
"254 917 OFFCURVE",
"229 892 OFFCURVE",
"229 864 CURVE SMOOTH",
"229 837 OFFCURVE",
"254 811 OFFCURVE",
"282 811 CURVE SMOOTH"
);
}
);
width = 370;
}
);
unicode = 0308;
},
{
export = 0;
glyphname = dotaccentcomb;
lastChange = "2020-04-19 16:54:59 +0000";
layers = (
{
associatedMasterId = "1C9972D2-AAA2-4EE5-9F28-188B121D2056";
layerId = "CAA188E2-8C62-414B-93AE-B576BEB044DB";
paths = (
{
closed = 1;
nodes = (
"120 840 LINE",
"180 840 LINE",
"180 900 LINE",
"120 900 LINE"
);
}
);
width = 300;
},
{
layerId = "1C9972D2-AAA2-4EE5-9F28-188B121D2056";
paths = (
{
closed = 1;
nodes = (
"213 802 OFFCURVE",
"238 827 OFFCURVE",
"238 856 CURVE SMOOTH",
"238 885 OFFCURVE",
"213 910 OFFCURVE",
"184 910 CURVE SMOOTH",
"155 910 OFFCURVE",
"130 885 OFFCURVE",
"130 856 CURVE SMOOTH",
"130 827 OFFCURVE",
"155 802 OFFCURVE",
"184 802 CURVE SMOOTH"
);
}
);
width = 376;
},
{
associatedMasterId = "1C9972D2-AAA2-4EE5-9F28-188B121D2056";
layerId = "A2873047-0ED6-4C67-9B4D-3870B51BD5C6";
name = "new Layer";
width = 600;
},
{
associatedMasterId = "1C9972D2-AAA2-4EE5-9F28-188B121D2056";
layerId = "55314CA7-5524-4D70-B802-98D4FAE25636";
name = "new Layer";
width = 300;
},
{
associatedMasterId = "1C9972D2-AAA2-4EE5-9F28-188B121D2056";
layerId = "13A3DD5D-E91B-4961-8595-F8141D3FA442";
name = "new Layer";
width = 552;
}
);
unicode = 0307;
},
{
export = 0;
glyphname = gravecomb;
lastChange = "2020-04-19 16:54:59 +0000";
layers = (
{
guideLines = (
{
position = "{250, 788}";
}
);
layerId = "1C9972D2-AAA2-4EE5-9F28-188B121D2056";
paths = (
{
closed = 1;
nodes = (
"284 788 LINE",
"390 939 LINE",
"296 939 LINE",
"212 788 LINE"
);
}
);
width = 555;
}
);
unicode = 0300;
},
{
export = 0;
glyphname = brevecomb;
lastChange = "2020-04-19 16:54:59 +0000";
layers = (
{
layerId = "1C9972D2-AAA2-4EE5-9F28-188B121D2056";
paths = (
{
closed = 1;
nodes = (
"316 788 OFFCURVE",
"371 852 OFFCURVE",
"371 922 CURVE",
"371 940 LINE",
"298 939 LINE",
"298 917 LINE",
"298 885 OFFCURVE",
"278 856 OFFCURVE",
"226 856 CURVE",
"175 856 OFFCURVE",
"159 892 OFFCURVE",
"159 924 CURVE",
"159 939 LINE",
"85 939 LINE",
"85 926 LINE",
"85 855 OFFCURVE",
"141 788 OFFCURVE",
"226 788 CURVE"
);
}
);
width = 451;
}
);
unicode = 0306;
},
{
export = 0;
glyphname = ringcomb;
lastChange = "2020-04-19 16:54:59 +0000";
layers = (
{
guideLines = (
{
position = "{77.727, 747.406}";
}
);
layerId = "1C9972D2-AAA2-4EE5-9F28-188B121D2056";
paths = (
{
closed = 1;
nodes = (
"184 806 OFFCURVE",
"230 763 OFFCURVE",
"287 763 CURVE SMOOTH",
"344 763 OFFCURVE",
"390 806 OFFCURVE",
"390 861 CURVE SMOOTH",
"390 916 OFFCURVE",
"344 959 OFFCURVE",
"287 959 CURVE SMOOTH",
"230 959 OFFCURVE",
"184 916 OFFCURVE",
"184 861 CURVE SMOOTH"
);
},
{
closed = 1;
nodes = (
"252 882 OFFCURVE",
"267 897 OFFCURVE",
"286 897 CURVE SMOOTH",
"306 897 OFFCURVE",
"321 882 OFFCURVE",
"321 862 CURVE SMOOTH",
"321 842 OFFCURVE",
"306 827 OFFCURVE",
"286 827 CURVE SMOOTH",
"267 827 OFFCURVE",
"252 842 OFFCURVE",
"252 862 CURVE SMOOTH"
);
}
);
width = 570;
}
);
unicode = 030A;
},
{
export = 0;
glyphname = tildecomb;
lastChange = "2020-04-19 16:54:59 +0000";
layers = (
{
layerId = "1C9972D2-AAA2-4EE5-9F28-188B121D2056";
paths = (
{
closed = 1;
nodes = (
"193 787 LINE",
"193 830 OFFCURVE",
"201 851 OFFCURVE",
"223 851 CURVE",
"265 851 OFFCURVE",
"296 788 OFFCURVE",
"357 788 CURVE",
"410 788 OFFCURVE",
"449 837 OFFCURVE",
"449 926 CURVE",
"381 926 LINE",
"381 888 OFFCURVE",
"375 861 OFFCURVE",
"350 861 CURVE",
"318 861 OFFCURVE",
"271 926 OFFCURVE",
"222 926 CURVE",
"164 926 OFFCURVE",
"125 878 OFFCURVE",
"125 788 CURVE"
);
}
);
width = 590;
}
);
unicode = 0303;
},
{
export = 0;
glyphname = macroncomb;
lastChange = "2020-04-19 16:54:59 +0000";
layers = (
{
layerId = "1C9972D2-AAA2-4EE5-9F28-188B121D2056";
paths = (
{
closed = 1;
nodes = (
"419 819 LINE",
"419 891 LINE",
"108 891 LINE",
"108 819 LINE"
);
}
);
width = 512;
}
);
unicode = 0304;
},
{
export = 0;
glyphname = ogonekcomb;
lastChange = "2020-04-19 16:54:59 +0000";
layers = (
{
layerId = "1C9972D2-AAA2-4EE5-9F28-188B121D2056";
paths = (
{
closed = 1;
nodes = (
"218 -184 LINE",
"218 -114 LINE",
"209 -118 LINE",
"113 -155 OFFCURVE",
"110 -114 OFFCURVE",
"110 -94 CURVE",
"110 -78 OFFCURVE",
"112 -57 OFFCURVE",
"154 0 CURVE",
"159 4 LINE",
"92 13 LINE",
"57 -24 OFFCURVE",
"40 -67 OFFCURVE",
"40 -104 CURVE",
"40 -167 OFFCURVE",
"98 -225 OFFCURVE",
"198 -192 CURVE"
);
}
);
width = 258;
}
);
unicode = 0328;
},
{
export = 0;
glyphname = strokeshortcomb;
lastChange = "2020-04-19 16:54:59 +0000";
layers = (
{
layerId = "1C9972D2-AAA2-4EE5-9F28-188B121D2056";
paths = (
{
closed = 1;
nodes = (
"441 277 LINE",
"441 353 LINE",
"96 353 LINE",
"96.44 277.356 LINE"
);
}
);
width = 540;
}
);
unicode = 0335;
},
{
export = 0;
glyphname = strokelongcomb;
lastChange = "2020-04-19 16:54:59 +0000";
layers = (
{
layerId = "1C9972D2-AAA2-4EE5-9F28-188B121D2056";
paths = (
{
closed = 1;
nodes = (
"721 277 LINE",
"721 354 LINE",
"61 354 LINE",
"61.44 277.356 LINE"
);
}
);
width = 780;
}
);
unicode = 0336;
},
{
export = 0;
glyphname = slashshortcomb;
lastChange = "2020-04-19 16:54:59 +0000";
layers = (
{
layerId = "1C9972D2-AAA2-4EE5-9F28-188B121D2056";
paths = (
{
closed = 1;
nodes = (
"398 428.957 LINE",
"398 514 LINE",
"38 307.679 LINE",
"38 223 LINE"
);
}
);
width = 436;
}
);
unicode = 0337;
},
{
export = 0;
glyphname = slashlongcomb;
lastChange = "2020-04-19 16:54:59 +0000";
layers = (
{
layerId = "1C9972D2-AAA2-4EE5-9F28-188B121D2056";
paths = (
{
closed = 1;
nodes = (
"720 629 LINE",
"630 720 LINE",
"0 90 LINE",
"90 0 LINE"
);
}
);
width = 720;
}
);
unicode = 0338;
},
